<?xml version="1.0" encoding="UTF-8"?>
<!DOCTYPE svg PUBLIC "-//W3C//DTD SVG 1.1//EN" "http://www.w3.org/Graphics/SVG/1.1/DTD/svg11.dtd">
<svg xmlns="http://www.w3.org/2000/svg" version="1.1" width="9080px" height="3311px" style="shape-rendering:geometricPrecision; text-rendering:geometricPrecision; image-rendering:optimizeQuality; fill-rule:evenodd; clip-rule:evenodd" xmlns:xlink="http://www.w3.org/1999/xlink">
<g><path style="opacity:0.998" fill="#f1581a" d="M 6893.5,-0.5 C 6899.17,-0.5 6904.83,-0.5 6910.5,-0.5C 6968.6,81.3686 7013.27,170.369 7044.5,266.5C 7039.17,265.833 7033.83,265.167 7028.5,264.5C 6996.34,169.174 6951.34,80.8407 6893.5,-0.5 Z"/></g>
<g><path style="opacity:0.999" fill="#f45b15" d="M 6910.5,-0.5 C 6920.5,-0.5 6930.5,-0.5 6940.5,-0.5C 6942.61,0.468218 6944.94,0.801552 6947.5,0.5C 7004.47,84.4565 7048.14,175.123 7078.5,272.5C 7067.19,270.371 7055.86,268.371 7044.5,266.5C 7013.27,170.369 6968.6,81.3686 6910.5,-0.5 Z"/></g>
<g><path style="opacity:0.998" fill="#ec5323" d="M 6869.5,0.5 C 6868.74,1.26791 6867.74,1.76791 6866.5,2C 6925.95,81.3875 6971.28,168.221 7002.5,262.5C 6997.19,261.902 6991.85,261.569 6986.5,261.5C 6953.7,166.874 6907.03,80.2071 6846.5,1.5C 6854.16,1.0135 6861.83,0.680167 6869.5,0.5 Z"/></g>
<g><path style="opacity:0.999" fill="#ee551f" d="M 6874.5,-0.5 C 6880.83,-0.5 6887.17,-0.5 6893.5,-0.5C 6951.34,80.8407 6996.34,169.174 7028.5,264.5C 7019.86,263.533 7011.19,262.866 7002.5,262.5C 6971.28,168.221 6925.95,81.3875 6866.5,2C 6867.74,1.76791 6868.74,1.26791 6869.5,0.5C 6871.41,0.784479 6873.08,0.451145 6874.5,-0.5 Z"/></g>
<g><path style="opacity:0.998" fill="#f75e0f" d="M 6947.5,0.5 C 6957.19,0.860959 6966.86,1.52763 6976.5,2.5C 7033.11,88.2481 7076.11,180.581 7105.5,279.5C 7096.54,277.01 7087.54,274.676 7078.5,272.5C 7048.14,175.123 7004.47,84.4565 6947.5,0.5 Z"/></g>
<g><path style="opacity:0.998" fill="#eb5228" d="M 6846.5,1.5 C 6907.03,80.2071 6953.7,166.874 6986.5,261.5C 6978.17,261.5 6969.83,261.5 6961.5,261.5C 6928.86,169.864 6883.03,85.8639 6824,9.5C 6822.2,7.17434 6820.03,5.50767 6817.5,4.5C 6827.2,3.69719 6836.86,2.69719 6846.5,1.5 Z"/></g>
<g><path style="opacity:0.998" fill="#fa6108" d="M 6976.5,2.5 C 6991.41,3.69583 7006.08,5.69583 7020.5,8.5C 7017,8.56527 7016.5,9.8986 7019,12.5C 7072.69,99.3756 7113.53,192.042 7141.5,290.5C 7129.63,286.433 7117.63,282.766 7105.5,279.5C 7076.11,180.581 7033.11,88.2481 6976.5,2.5 Z"/></g>
<g><path style="opacity:0.999" fill="#e84f2c" d="M 6817.5,4.5 C 6820.03,5.50767 6822.2,7.17434 6824,9.5C 6883.03,85.8639 6928.86,169.864 6961.5,261.5C 6956.44,261.274 6951.44,261.608 6946.5,262.5C 6912.73,168.919 6865.06,83.5854 6803.5,6.5C 6808.2,5.99577 6812.87,5.3291 6817.5,4.5 Z"/></g>
<g><path style="opacity:0.998" fill="#e64d30" d="M 6803.5,6.5 C 6865.06,83.5854 6912.73,168.919 6946.5,262.5C 6941.12,262.324 6935.79,262.658 6930.5,263.5C 6896.34,170.453 6848.34,85.786 6786.5,9.5C 6792.09,8.22472 6797.75,7.22472 6803.5,6.5 Z"/></g>
<g><path style="opacity:0.998" fill="#fe6401" d="M 7020.5,8.5 C 7042.47,11.4277 7064.14,15.761 7085.5,21.5C 7138.5,114.543 7177.5,212.876 7202.5,316.5C 7182.65,306.663 7162.32,297.996 7141.5,290.5C 7113.53,192.042 7072.69,99.3756 7019,12.5C 7016.5,9.8986 7017,8.56527 7020.5,8.5 Z"/></g>
<g><path style="opacity:0.998" fill="#e44b34" d="M 6786.5,9.5 C 6848.34,85.786 6896.34,170.453 6930.5,263.5C 6922.49,264.093 6914.49,264.76 6906.5,265.5C 6872.88,173.044 6824.55,89.5437 6761.5,15C 6762.06,14.6174 6762.39,14.1174 6762.5,13.5C 6770.43,11.7802 6778.43,10.4469 6786.5,9.5 Z"/></g>
<g><path style="opacity:0.998" fill="#e1483a" d="M 6762.5,13.5 C 6762.39,14.1174 6762.06,14.6174 6761.5,15C 6824.55,89.5437 6872.88,173.044 6906.5,265.5C 6899.19,266.829 6891.86,268.163 6884.5,269.5C 6849.41,177.257 6800.08,93.9232 6736.5,19.5C 6745.14,17.3725 6753.8,15.3725 6762.5,13.5 Z"/></g>
<g><path style="opacity:0.998" fill="#fe6000" d="M 7085.5,21.5 C 7113.42,28.3616 7140.75,37.0283 7167.5,47.5C 7218.51,146.195 7254.85,250.195 7276.5,359.5C 7276.31,360.584 7275.98,361.584 7275.5,362.5C 7252.31,345.403 7227.98,330.069 7202.5,316.5C 7177.5,212.876 7138.5,114.543 7085.5,21.5 Z"/></g>
<g><path style="opacity:0.999" fill="#de453f" d="M 6736.5,19.5 C 6800.08,93.9232 6849.41,177.257 6884.5,269.5C 6876.72,270.788 6869.06,272.455 6861.5,274.5C 6826.71,182.183 6776.71,99.5168 6711.5,26.5C 6719.6,23.7216 6727.94,21.3882 6736.5,19.5 Z"/></g>
<g><path style="opacity:0.998" fill="#dc4342" d="M 6711.5,26.5 C 6776.71,99.5168 6826.71,182.183 6861.5,274.5C 6858.17,275.167 6854.83,275.833 6851.5,276.5C 6851.84,273.926 6851.34,271.259 6850,268.5C 6815.22,179.203 6766.06,99.2025 6702.5,28.5C 6705.4,27.4222 6708.4,26.7556 6711.5,26.5 Z"/></g>
<g><path style="opacity:0.994" fill="#000000" d="M 5058.5,27.5 C 5174.71,23.2343 5288.38,38.0676 5399.5,72C 5578.34,130.616 5722.5,236.116 5832,388.5C 5863.78,433.699 5891.78,481.366 5916,531.5C 5919.4,539.908 5917.56,546.741 5910.5,552C 5899.83,556.667 5889.17,561.333 5878.5,566C 5873.81,567.932 5869.14,567.932 5864.5,566C 5846.2,530.731 5826.7,496.231 5806,462.5C 5703.93,303.797 5560.43,203.297 5375.5,161C 5260.09,135.899 5143.42,126.899 5025.5,134C 4832.3,150.665 4665.3,224.665 4524.5,356C 4419.2,459.684 4345.36,582.85 4303,725.5C 4266.25,854.339 4251.92,985.672 4260,1119.5C 4270.72,1332.97 4332.05,1530.3 4444,1711.5C 4553.72,1884.56 4700.55,2016.06 4884.5,2106C 5102.66,2207.12 5327.33,2224.46 5558.5,2158C 5689.41,2116.25 5804.74,2048.92 5904.5,1956C 5921.67,1940.17 5938.17,1923.67 5954,1906.5C 5956.8,1898.22 5961.97,1896.39 5969.5,1901C 5975.3,1905.8 5980.8,1910.97 5986,1916.5C 5990.04,1921.67 5991.04,1927.34 5989,1933.5C 5857.39,2115.02 5684.55,2240.52 5470.5,2310C 5314.8,2358.03 5155.8,2374.37 4993.5,2359C 4751.58,2336.63 4536.25,2250.3 4347.5,2100C 4138.81,1925.65 4007.98,1704.15 3955,1435.5C 3922.02,1254.1 3925.69,1073.43 3966,893.5C 4014.63,680.324 4116.46,497.824 4271.5,346C 4415.18,211.955 4582.85,119.621 4774.5,69C 4867.77,44.5577 4962.43,30.7244 5058.5,27.5 Z"/></g>
<g><path style="opacity:0.999" fill="#db4246" d="M 6702.5,28.5 C 6766.06,99.2025 6815.22,179.203 6850,268.5C 6851.34,271.259 6851.84,273.926 6851.5,276.5C 6845.23,278.366 6838.9,280.033 6832.5,281.5C 6804.72,210.917 6767.88,145.584 6722,85.5C 6707.93,68.9407 6694.1,52.2741 6680.5,35.5C 6687.83,33.1667 6695.17,30.8333 6702.5,28.5 Z"/></g>
<g><path style="opacity:0.996" fill="#6598fe" d="M 8910.5,599.5 C 8910.99,602.711 8910.32,605.544 8908.5,608C 8825.89,629.818 8743.23,651.318 8660.5,672.5C 8656.99,534.677 8604.66,419.511 8503.5,327C 8386.89,227.021 8251.55,183.021 8097.5,195C 7993.15,206.217 7898.48,242.217 7813.5,303C 7747,352.167 7689.17,410 7640,476.5C 7629.94,490.225 7620.28,504.225 7611,518.5C 7603.62,499.687 7596.62,480.687 7590,461.5C 7589.42,458.743 7589.75,456.077 7591,453.5C 7687.54,245.317 7847.04,112.15 8069.5,54C 8219.33,18.2463 8367,25.5797 8512.5,76C 8624.34,115.56 8716.84,181.727 8790,274.5C 8861.6,370.761 8901.77,479.095 8910.5,599.5 Z"/></g>
<g><path style="opacity:0.997" fill="#d94049" d="M 6680.5,35.5 C 6694.1,52.2741 6707.93,68.9407 6722,85.5C 6767.88,145.584 6804.72,210.917 6832.5,281.5C 6829.78,283.072 6826.78,284.072 6823.5,284.5C 6789,192.101 6738.33,110.101 6671.5,38.5C 6674.58,37.696 6677.58,36.696 6680.5,35.5 Z"/></g>
<g><path style="opacity:0.999" fill="#d83f4c" d="M 6671.5,38.5 C 6738.33,110.101 6789,192.101 6823.5,284.5C 6819.78,286.405 6815.78,287.739 6811.5,288.5C 6809.59,288.426 6808.42,287.426 6808,285.5C 6773.61,194.647 6723.11,114.314 6656.5,44.5C 6661.32,42.2615 6666.32,40.2615 6671.5,38.5 Z"/></g>
<g><path style="opacity:0.998" fill="#d63d50" d="M 6656.5,44.5 C 6723.11,114.314 6773.61,194.647 6808,285.5C 6808.42,287.426 6809.59,288.426 6811.5,288.5C 6806.46,291.071 6801.13,293.071 6795.5,294.5C 6760.73,202.139 6709.07,120.806 6640.5,50.5C 6645.61,47.9469 6650.94,45.9469 6656.5,44.5 Z"/></g>
<g><path style="opacity:0.997" fill="#fe5a00" d="M 7167.5,47.5 C 7198.05,59.5596 7227.39,73.893 7255.5,90.5C 7304.46,200.685 7336.46,315.351 7351.5,434.5C 7328.36,408.025 7303.03,384.025 7275.5,362.5C 7275.98,361.584 7276.31,360.584 7276.5,359.5C 7254.85,250.195 7218.51,146.195 7167.5,47.5 Z"/></g>
<g><path style="opacity:0.999" fill="#d43b53" d="M 6640.5,50.5 C 6709.07,120.806 6760.73,202.139 6795.5,294.5C 6790.68,297.072 6785.68,299.406 6780.5,301.5C 6757.1,234.351 6723.6,173.017 6680,117.5C 6663.08,96.4061 6645.24,76.0727 6626.5,56.5C 6631.08,54.3052 6635.75,52.3052 6640.5,50.5 Z"/></g>
<g><path style="opacity:0.995" fill="#000000" d="M -0.5,2320.5 C -0.5,1971.5 -0.5,1622.5 -0.5,1273.5C 0.936875,871.334 2.10354,469 3,66.5C 3.73859,63.4265 5.57192,61.2598 8.5,60C 109.833,59.3333 211.167,59.3333 312.5,60C 315.843,61.9217 318.677,64.4217 321,67.5C 595.194,689.75 869.194,1312.08 1143,1934.5C 1145.47,1940.25 1148.14,1945.92 1151,1951.5C 1159.63,1957.25 1167.3,1956.25 1174,1948.5C 1457.68,1319.32 1741.18,690.155 2024.5,61C 2128.44,59.34 2232.44,59.0067 2336.5,60C 2341.43,61.9268 2344.59,65.4268 2346,70.5C 2346.17,445.5 2346.33,820.5 2346.5,1195.5C 2346.33,1570.5 2346.17,1945.5 2346,2320.5C 2344.59,2325.57 2341.43,2329.07 2336.5,2331C 2237.17,2331.67 2137.83,2331.67 2038.5,2331C 2033.42,2328.45 2030.92,2324.28 2031,2318.5C 2030.67,1678.5 2030.33,1038.5 2030,398.5C 2025.03,389.511 2017.86,387.345 2008.5,392C 2005.76,393.614 2003.6,395.781 2002,398.5C 1713.33,1039.83 1424.67,1681.17 1136,2322.5C 1133.78,2326.39 1130.61,2329.22 1126.5,2331C 1076.83,2331.67 1027.17,2331.67 977.5,2331C 975.376,2329.88 973.543,2328.38 972,2326.5C 968,2317.83 964,2309.17 960,2300.5C 689,1682.5 418,1064.5 147,446.5C 142.065,435.109 133.898,431.609 122.5,436C 120.622,437.543 119.122,439.376 118,441.5C 117.667,1067.17 117.333,1692.83 117,2318.5C 117.084,2324.28 114.584,2328.45 109.5,2331C 76.1667,2331.67 42.8333,2331.67 9.5,2331C 4.55732,2328.89 1.22399,2325.39 -0.5,2320.5 Z"/></g>
<g><path style="opacity:0.996" fill="#000000" d="M 2615.5,59.5 C 3039.5,59.3333 3463.5,59.5 3887.5,60C 3892,61.8333 3895.17,65 3897,69.5C 3897.67,102.833 3897.67,136.167 3897,169.5C 3895.44,172.728 3892.94,174.895 3889.5,176C 3570.5,176.333 3251.5,176.667 2932.5,177C 2927.19,177.645 2923.69,180.478 2922,185.5C 2921.33,486.833 2921.33,788.167 2922,1089.5C 2923.17,1093.33 2925.67,1095.83 2929.5,1097C 3181.5,1097.33 3433.5,1097.67 3685.5,1098C 3690.39,1098.56 3693.89,1101.06 3696,1105.5C 3696.67,1138.5 3696.67,1171.5 3696,1204.5C 3694.42,1210.41 3690.59,1213.91 3684.5,1215C 3433.5,1215.33 3182.5,1215.67 2931.5,1216C 2928.03,1216.32 2925.19,1217.82 2923,1220.5C 2921.83,1384.59 2921.33,1548.75 2921.5,1713C 2921.34,1877.56 2921.84,2042.06 2923,2206.5C 2926.07,2211.45 2930.57,2213.95 2936.5,2214C 3254.17,2214.33 3571.83,2214.67 3889.5,2215C 3892.94,2216.1 3895.44,2218.27 3897,2221.5C 3897.67,2254.83 3897.67,2288.17 3897,2321.5C 3895.17,2326 3892,2329.17 3887.5,2331C 3463.5,2331.67 3039.5,2331.67 2615.5,2331C 2610.57,2329.07 2607.41,2325.57 2606,2320.5C 2605.33,1570.5 2605.33,820.5 2606,70.5C 2607.6,65.406 2610.77,61.7393 2615.5,59.5 Z"/></g>
<g><path style="opacity:0.999" fill="#d23958" d="M 6626.5,56.5 C 6645.24,76.0727 6663.08,96.4061 6680,117.5C 6723.6,173.017 6757.1,234.351 6780.5,301.5C 6773.84,304.498 6767.17,307.498 6760.5,310.5C 6735.91,242.168 6701.08,179.835 6656,123.5C 6639.68,104.015 6622.85,85.0146 6605.5,66.5C 6612.08,62.4112 6619.08,59.0778 6626.5,56.5 Z"/></g>
<g><path style="opacity:0.997" fill="#d0375b" d="M 6605.5,66.5 C 6622.85,85.0146 6639.68,104.015 6656,123.5C 6701.08,179.835 6735.91,242.168 6760.5,310.5C 6758.36,312.071 6756.03,313.404 6753.5,314.5C 6727.05,242.569 6689.55,177.235 6641,118.5C 6632.96,110.13 6625.29,101.464 6618,92.5C 6610.91,84.9061 6603.41,77.9061 6595.5,71.5C 6598.52,69.3256 6601.85,67.6589 6605.5,66.5 Z"/></g>
<g><path style="opacity:0.999" fill="#cf365e" d="M 6595.5,71.5 C 6603.41,77.9061 6610.91,84.9061 6618,92.5C 6625.29,101.464 6632.96,110.13 6641,118.5C 6689.55,177.235 6727.05,242.569 6753.5,314.5C 6748.87,317.151 6744.2,319.818 6739.5,322.5C 6706.89,228.221 6654.89,146.554 6583.5,77.5C 6587.18,74.9922 6591.18,72.9922 6595.5,71.5 Z"/></g>
<g><path style="opacity:0.998" fill="#cd3461" d="M 6583.5,77.5 C 6654.89,146.554 6706.89,228.221 6739.5,322.5C 6735.07,325.594 6730.41,328.261 6725.5,330.5C 6693.64,235.388 6641.31,153.722 6568.5,85.5C 6573.02,82.0734 6578.02,79.4068 6583.5,77.5 Z"/></g>
<g><path style="opacity:0.999" fill="#cb3266" d="M 6568.5,85.5 C 6641.31,153.722 6693.64,235.388 6725.5,330.5C 6719.46,335.191 6713.13,339.525 6706.5,343.5C 6675.62,248.14 6623.45,166.474 6550,98.5C 6549.54,97.9056 6549.37,97.2389 6549.5,96.5C 6555.57,92.442 6561.9,88.7753 6568.5,85.5 Z"/></g>
<g><path style="opacity:0.997" fill="#fe5400" d="M 7255.5,90.5 C 7271.27,98.8889 7286.61,108.056 7301.5,118C 7317.92,128.928 7333.58,140.762 7348.5,153.5C 7347.9,153.735 7347.57,154.235 7347.5,155C 7394.22,283.422 7420.22,415.922 7425.5,552.5C 7405.86,509.868 7381.2,470.534 7351.5,434.5C 7336.46,315.351 7304.46,200.685 7255.5,90.5 Z"/></g>
<g><path style="opacity:0.998" fill="#c93069" d="M 6549.5,96.5 C 6549.37,97.2389 6549.54,97.9056 6550,98.5C 6623.45,166.474 6675.62,248.14 6706.5,343.5C 6704.47,345.522 6702.14,347.189 6699.5,348.5C 6669.62,254.211 6618.62,173.378 6546.5,106C 6544.6,104.579 6542.6,103.412 6540.5,102.5C 6542.95,99.7693 6545.95,97.7693 6549.5,96.5 Z"/></g>
<g><path style="opacity:0.999" fill="#c82f6c" d="M 6540.5,102.5 C 6542.6,103.412 6544.6,104.579 6546.5,106C 6618.62,173.378 6669.62,254.211 6699.5,348.5C 6695.82,352.18 6691.82,355.514 6687.5,358.5C 6657.43,260.652 6604.43,177.652 6528.5,109.5C 6532.2,106.65 6536.2,104.317 6540.5,102.5 Z"/></g>
<g><path style="opacity:0.997" fill="#c62d6f" d="M 6528.5,109.5 C 6604.43,177.652 6657.43,260.652 6687.5,358.5C 6684.68,361.075 6681.68,363.408 6678.5,365.5C 6662.5,305.514 6636.34,250.514 6600,200.5C 6578.74,171.228 6554.57,144.394 6527.5,120C 6525.27,118.25 6522.93,116.75 6520.5,115.5C 6522.86,113.147 6525.53,111.147 6528.5,109.5 Z"/></g>
<g><path style="opacity:0.999" fill="#c52c72" d="M 6520.5,115.5 C 6522.93,116.75 6525.27,118.25 6527.5,120C 6554.57,144.394 6578.74,171.228 6600,200.5C 6636.34,250.514 6662.5,305.514 6678.5,365.5C 6672.49,371.509 6666.16,377.175 6659.5,382.5C 6649.1,334.493 6630.93,289.493 6605,247.5C 6578.86,205.707 6547.7,168.207 6511.5,135C 6508.31,132.574 6504.98,130.407 6501.5,128.5C 6507.55,123.783 6513.89,119.45 6520.5,115.5 Z"/></g>
<g><path style="opacity:0.999" fill="#c22978" d="M 6501.5,128.5 C 6504.98,130.407 6508.31,132.574 6511.5,135C 6547.7,168.207 6578.86,205.707 6605,247.5C 6630.93,289.493 6649.1,334.493 6659.5,382.5C 6653.72,389.066 6647.72,395.4 6641.5,401.5C 6618.51,297.808 6566.68,211.808 6486,143.5C 6485.52,142.552 6485.35,141.552 6485.5,140.5C 6490.53,136.147 6495.86,132.147 6501.5,128.5 Z"/></g>
<g><path style="opacity:0.997" fill="#c0277b" d="M 6485.5,140.5 C 6485.35,141.552 6485.52,142.552 6486,143.5C 6566.68,211.808 6618.51,297.808 6641.5,401.5C 6639.63,404.582 6637.29,407.249 6634.5,409.5C 6613.3,303.037 6560.97,215.703 6477.5,147.5C 6479.75,144.705 6482.42,142.372 6485.5,140.5 Z"/></g>
<g><path style="opacity:0.999" fill="#bf267e" d="M 6477.5,147.5 C 6560.97,215.703 6613.3,303.037 6634.5,409.5C 6630.16,414.873 6625.82,420.206 6621.5,425.5C 6603.6,315.985 6551.93,226.318 6466.5,156.5C 6469.87,153.129 6473.54,150.129 6477.5,147.5 Z"/></g>
<g><path style="opacity:0.995" fill="#fe4d00" d="M 7348.5,153.5 C 7393.03,189.023 7432.03,229.69 7465.5,275.5C 7491.84,382.726 7505.51,491.56 7506.5,602C 7506.52,782.078 7467.85,953.245 7390.5,1115.5C 7341.11,1157.73 7286.77,1192.73 7227.5,1220.5C 7226.47,1220.1 7226.31,1219.44 7227,1218.5C 7261.71,1171.77 7291.88,1122.11 7317.5,1069.5C 7420.22,960.959 7467.72,831.625 7460,681.5C 7455.93,636.463 7444.43,593.463 7425.5,552.5C 7420.22,415.922 7394.22,283.422 7347.5,155C 7347.57,154.235 7347.9,153.735 7348.5,153.5 Z"/></g>
<g><path style="opacity:0.997" fill="#bd2481" d="M 6466.5,156.5 C 6551.93,226.318 6603.6,315.985 6621.5,425.5C 6616.83,432.167 6612.17,438.833 6607.5,445.5C 6594.94,336.538 6547.27,246.371 6464.5,175C 6461.12,171.985 6457.46,169.485 6453.5,167.5C 6457.51,163.487 6461.85,159.821 6466.5,156.5 Z"/></g>
<g><path style="opacity:0.998" fill="#bb2386" d="M 6453.5,167.5 C 6457.46,169.485 6461.12,171.985 6464.5,175C 6547.27,246.371 6594.94,336.538 6607.5,445.5C 6599.23,458.369 6591.23,471.369 6583.5,484.5C 6583.93,372.554 6543.26,278.72 6461.5,203C 6453.3,195.554 6444.97,189.054 6436.5,183.5C 6441.54,177.462 6447.2,172.129 6453.5,167.5 Z"/></g>
<g><path style="opacity:0.998" fill="#b9208a" d="M 6436.5,183.5 C 6444.97,189.054 6453.3,195.554 6461.5,203C 6543.26,278.72 6583.93,372.554 6583.5,484.5C 6575.85,500.784 6568.52,517.117 6561.5,533.5C 6581.53,408.416 6545.53,302.25 6453.5,215C 6444.6,207.583 6435.93,200.083 6427.5,192.5C 6430.17,189.167 6433.17,186.167 6436.5,183.5 Z"/></g>
<g><path style="opacity:0.998" fill="#b71e8d" d="M 6427.5,192.5 C 6435.93,200.083 6444.6,207.583 6453.5,215C 6545.53,302.25 6581.53,408.416 6561.5,533.5C 6556.8,547.917 6552.14,562.251 6547.5,576.5C 6547.63,575.761 6547.46,575.094 6547,574.5C 6508.11,659.899 6441.95,708.732 6348.5,721C 6311.2,724.614 6274.54,721.281 6238.5,711C 6234.96,710.337 6231.96,708.837 6229.5,706.5C 6229.5,703.5 6229.5,700.5 6229.5,697.5C 6230.31,698.469 6231.31,699.302 6232.5,700C 6296.21,720.249 6358.88,717.582 6420.5,692C 6495.12,655.665 6539.96,596.499 6555,514.5C 6567.44,423.575 6546.1,341.575 6491,268.5C 6470.59,242.254 6447.09,219.254 6420.5,199.5C 6422.5,196.833 6424.83,194.5 6427.5,192.5 Z"/></g>
<g><path style="opacity:1" fill="#b61d90" d="M 6420.5,199.5 C 6447.09,219.254 6470.59,242.254 6491,268.5C 6546.1,341.575 6567.44,423.575 6555,514.5C 6539.96,596.499 6495.12,655.665 6420.5,692C 6358.88,717.582 6296.21,720.249 6232.5,700C 6231.31,699.302 6230.31,698.469 6229.5,697.5C 6229.5,693.5 6229.5,689.5 6229.5,685.5C 6230.22,685.082 6230.72,684.416 6231,683.5C 6280.6,699.986 6330.77,701.819 6381.5,689C 6453.03,667.153 6502.2,621.319 6529,551.5C 6550.39,487.086 6549.05,423.086 6525,359.5C 6501.84,300.673 6465.34,251.84 6415.5,213C 6413.78,211.441 6411.78,210.608 6409.5,210.5C 6412.83,206.5 6416.5,202.833 6420.5,199.5 Z"/></g>
<g><path style="opacity:0.999" fill="#b41b93" d="M 6409.5,210.5 C 6411.78,210.608 6413.78,211.441 6415.5,213C 6465.34,251.84 6501.84,300.673 6525,359.5C 6549.05,423.086 6550.39,487.086 6529,551.5C 6502.2,621.319 6453.03,667.153 6381.5,689C 6330.77,701.819 6280.6,699.986 6231,683.5C 6230.72,684.416 6230.22,685.082 6229.5,685.5C 6229.5,679.167 6229.5,672.833 6229.5,666.5C 6279.38,683.372 6329.71,684.872 6380.5,671C 6458.07,643.762 6505.57,589.928 6523,509.5C 6537.02,404.078 6505.19,315.245 6427.5,243C 6418.36,235.463 6409.36,227.963 6400.5,220.5C 6403.53,217.141 6406.53,213.808 6409.5,210.5 Z"/></g>
<g><path style="opacity:0.999" fill="#b21998" d="M 6400.5,220.5 C 6409.36,227.963 6418.36,235.463 6427.5,243C 6505.19,315.245 6537.02,404.078 6523,509.5C 6505.57,589.928 6458.07,643.762 6380.5,671C 6329.71,684.872 6279.38,683.372 6229.5,666.5C 6229.63,659.155 6229.96,651.822 6230.5,644.5C 6231.15,643.909 6231.82,643.243 6232.5,642.5C 6292.42,664.193 6350.75,660.693 6407.5,632C 6457.39,601.784 6488.22,557.95 6500,500.5C 6512.25,402.858 6481.75,321.358 6408.5,256C 6402.12,250.615 6395.45,245.615 6388.5,241C 6387.18,240.184 6386.51,239.017 6386.5,237.5C 6390.46,231.241 6395.13,225.575 6400.5,220.5 Z"/></g>
<g><path style="opacity:0.998" fill="#b0179b" d="M 6386.5,237.5 C 6386.51,239.017 6387.18,240.184 6388.5,241C 6395.45,245.615 6402.12,250.615 6408.5,256C 6481.75,321.358 6512.25,402.858 6500,500.5C 6488.22,557.95 6457.39,601.784 6407.5,632C 6350.75,660.693 6292.42,664.193 6232.5,642.5C 6231.82,643.243 6231.15,643.909 6230.5,644.5C 6230.19,640.629 6230.52,636.962 6231.5,633.5C 6282.59,652.3 6333.59,652.134 6384.5,633C 6443.43,605.387 6479.26,559.554 6492,495.5C 6503.06,403.324 6474.22,326.158 6405.5,264C 6397.1,257.48 6388.76,250.98 6380.5,244.5C 6381.8,241.568 6383.8,239.234 6386.5,237.5 Z"/></g>
<g><path style="opacity:1" fill="#af169e" d="M 6380.5,244.5 C 6388.76,250.98 6397.1,257.48 6405.5,264C 6474.22,326.158 6503.06,403.324 6492,495.5C 6479.26,559.554 6443.43,605.387 6384.5,633C 6333.59,652.134 6282.59,652.3 6231.5,633.5C 6231.18,628.637 6231.51,623.97 6232.5,619.5C 6233.26,619.077 6234.1,618.743 6235,618.5C 6283.41,636.316 6331.58,635.816 6379.5,617C 6422.56,596.606 6452.4,564.106 6469,519.5C 6490.56,443.626 6477.56,374.293 6430,311.5C 6413.14,289.842 6393.31,271.509 6370.5,256.5C 6373.49,252.183 6376.82,248.183 6380.5,244.5 Z"/></g>
<g><path style="opacity:0.978" fill="#99b2fd" d="M 8319.5,325.5 C 8316.25,336.257 8312.25,346.59 8307.5,356.5C 8286.18,315.193 8264.85,273.86 8243.5,232.5C 8254.54,233.298 8265.37,235.631 8276,239.5C 8290.78,268.064 8305.28,296.731 8319.5,325.5 Z"/></g>
<g><path style="opacity:0.999" fill="#ad14a0" d="M 6370.5,256.5 C 6393.31,271.509 6413.14,289.842 6430,311.5C 6477.56,374.293 6490.56,443.626 6469,519.5C 6452.4,564.106 6422.56,596.606 6379.5,617C 6331.58,635.816 6283.41,636.316 6235,618.5C 6234.1,618.743 6233.26,619.077 6232.5,619.5C 6232.19,615.629 6232.52,611.962 6233.5,608.5C 6289.73,630.517 6344.06,626.684 6396.5,597C 6433.52,571.519 6457.02,536.685 6467,492.5C 6478.94,404.298 6450.77,331.798 6382.5,275C 6377.15,270.661 6371.48,266.828 6365.5,263.5C 6366.92,260.991 6368.59,258.657 6370.5,256.5 Z"/></g>
<g><path style="opacity:0.999" fill="#ac13a4" d="M 6365.5,263.5 C 6371.48,266.828 6377.15,270.661 6382.5,275C 6450.77,331.798 6478.94,404.298 6467,492.5C 6457.02,536.685 6433.52,571.519 6396.5,597C 6344.06,626.684 6289.73,630.517 6233.5,608.5C 6233.78,599.612 6234.78,590.945 6236.5,582.5C 6236.33,583.822 6236.66,584.989 6237.5,586C 6283.15,603.876 6328.15,602.542 6372.5,582C 6422.19,552.149 6447.19,507.983 6447.5,449.5C 6444.64,380.877 6415.64,326.377 6360.5,286C 6357.94,284.223 6355.27,282.723 6352.5,281.5C 6356.85,275.462 6361.18,269.462 6365.5,263.5 Z"/></g>
<g><path style="opacity:0.998" fill="#fe4700" d="M 7465.5,275.5 C 7506.86,329.858 7539.19,389.525 7562.5,454.5C 7561.84,455.622 7561.51,456.955 7561.5,458.5C 7581.32,630.904 7567.65,800.571 7520.5,967.5C 7486.03,1024.32 7442.69,1073.66 7390.5,1115.5C 7467.85,953.245 7506.52,782.078 7506.5,602C 7505.51,491.56 7491.84,382.726 7465.5,275.5 Z"/></g>
<g><path style="opacity:0.999" fill="#aa11a7" d="M 6352.5,281.5 C 6355.27,282.723 6357.94,284.223 6360.5,286C 6415.64,326.377 6444.64,380.877 6447.5,449.5C 6447.19,507.983 6422.19,552.149 6372.5,582C 6328.15,602.542 6283.15,603.876 6237.5,586C 6236.66,584.989 6236.33,583.822 6236.5,582.5C 6236.2,579.941 6236.53,577.607 6237.5,575.5C 6238.57,577.284 6240.24,578.451 6242.5,579C 6287.42,596.082 6331.09,593.416 6373.5,571C 6416.94,541.811 6438.94,500.811 6439.5,448C 6435.78,380.207 6406.11,327.207 6350.5,289C 6349.55,288.517 6348.55,288.351 6347.5,288.5C 6348.93,285.953 6350.6,283.619 6352.5,281.5 Z"/></g>
<g><path style="opacity:0.999" fill="#a910aa" d="M 6347.5,288.5 C 6348.55,288.351 6349.55,288.517 6350.5,289C 6406.11,327.207 6435.78,380.207 6439.5,448C 6438.94,500.811 6416.94,541.811 6373.5,571C 6331.09,593.416 6287.42,596.082 6242.5,579C 6240.24,578.451 6238.57,577.284 6237.5,575.5C 6237.62,570.951 6238.29,566.618 6239.5,562.5C 6240.12,562.389 6240.62,562.056 6241,561.5C 6276.04,576.753 6311.54,577.92 6347.5,565C 6397.5,541.382 6422.83,501.715 6423.5,446C 6421.6,391.868 6399.93,347.534 6358.5,313C 6352.45,308.315 6346.12,304.149 6339.5,300.5C 6342.17,296.5 6344.83,292.5 6347.5,288.5 Z"/></g>
<g><path style="opacity:0.965" fill="#acbbfc" d="M 8146.5,311.5 C 8145.77,316.351 8144.44,321.018 8142.5,325.5C 8109.22,294.554 8076.55,262.887 8044.5,230.5C 8049.71,228.687 8055.04,227.854 8060.5,228C 8089.43,255.619 8118.1,283.453 8146.5,311.5 Z"/></g>
<g><path style="opacity:0.999" fill="#a60daf" d="M 6339.5,300.5 C 6346.12,304.149 6352.45,308.315 6358.5,313C 6399.93,347.534 6421.6,391.868 6423.5,446C 6422.83,501.715 6397.5,541.382 6347.5,565C 6311.54,577.92 6276.04,576.753 6241,561.5C 6240.62,562.056 6240.12,562.389 6239.5,562.5C 6240.4,554.421 6241.74,546.421 6243.5,538.5C 6260.21,545.01 6277.54,548.677 6295.5,549.5C 6348.89,546.899 6382.73,519.899 6397,468.5C 6404.97,404.454 6382.14,354.788 6328.5,319.5C 6331.74,312.925 6335.41,306.592 6339.5,300.5 Z"/></g>
<g><path style="opacity:0.96" fill="#b6c0fb" d="M 7899.5,278.5 C 7951.54,302.349 8003.37,326.682 8055,351.5C 8059.33,347.844 8063.83,347.677 8068.5,351C 8075.59,358.46 8074.92,365.127 8066.5,371C 8057.16,372.994 8051.5,369.328 8049.5,360C 7995.89,335.196 7942.56,309.863 7889.5,284C 7893.06,282.392 7896.39,280.559 7899.5,278.5 Z"/></g>
<g><path style="opacity:0.998" fill="#a40bb3" d="M 6328.5,319.5 C 6382.14,354.788 6404.97,404.454 6397,468.5C 6382.73,519.899 6348.89,546.899 6295.5,549.5C 6277.54,548.677 6260.21,545.01 6243.5,538.5C 6244.39,532.613 6245.72,526.946 6247.5,521.5C 6283.47,538.439 6317.81,535.606 6350.5,513C 6378.29,486.95 6388.46,455.117 6381,417.5C 6374.48,389.62 6360.65,366.12 6339.5,347C 6333.1,342.146 6326.76,337.313 6320.5,332.5C 6322.42,327.657 6325.08,323.323 6328.5,319.5 Z"/></g>
<g><path style="opacity:0.999" fill="#a30ab7" d="M 6320.5,332.5 C 6326.76,337.313 6333.1,342.146 6339.5,347C 6360.65,366.12 6374.48,389.62 6381,417.5C 6388.46,455.117 6378.29,486.95 6350.5,513C 6317.81,535.606 6283.47,538.439 6247.5,521.5C 6248.63,513.17 6250.63,505.17 6253.5,497.5C 6277.25,510.55 6301.25,510.717 6325.5,498C 6350.78,480.558 6361.61,456.391 6358,425.5C 6352.58,393.94 6336.08,370.274 6308.5,354.5C 6312,346.839 6316,339.505 6320.5,332.5 Z"/></g>
<g><path style="opacity:0.978" fill="#a0b5fb" d="M 8146.5,311.5 C 8164.63,328.463 8182.63,345.629 8200.5,363C 8212.71,362.144 8218.71,367.978 8218.5,380.5C 8213.46,388.696 8206.46,391.196 8197.5,388C 8192.25,383.979 8190.09,378.812 8191,372.5C 8174.63,356.966 8158.47,341.3 8142.5,325.5C 8144.44,321.018 8145.77,316.351 8146.5,311.5 Z"/></g>
<g><path style="opacity:0.999" fill="#a007bc" d="M 6308.5,354.5 C 6336.08,370.274 6352.58,393.94 6358,425.5C 6361.61,456.391 6350.78,480.558 6325.5,498C 6301.25,510.717 6277.25,510.55 6253.5,497.5C 6254.03,493.051 6255.03,488.718 6256.5,484.5C 6263.91,487.436 6271.57,489.603 6279.5,491C 6308.32,493.679 6328.49,481.846 6340,455.5C 6347.99,423.476 6339.49,396.643 6314.5,375C 6310.52,371.845 6306.19,369.345 6301.5,367.5C 6303.6,362.973 6305.93,358.639 6308.5,354.5 Z"/></g>
<g><path style="opacity:0.933" fill="#bfc4fb" d="M 7792.5,344.5 C 7840.82,351.165 7889.16,357.832 7937.5,364.5C 7940.92,362.445 7944.59,360.778 7948.5,359.5C 7959.59,363.198 7961.25,369.365 7953.5,378C 7947.29,380.205 7942.62,378.372 7939.5,372.5C 7889.01,364.549 7838.35,357.383 7787.5,351C 7787.17,350.667 7786.83,350.333 7786.5,350C 7788.76,348.383 7790.76,346.55 7792.5,344.5 Z"/></g>
<g><path style="opacity:0.997" fill="#9e05c0" d="M 6301.5,367.5 C 6306.19,369.345 6310.52,371.845 6314.5,375C 6339.49,396.643 6347.99,423.476 6340,455.5C 6328.49,481.846 6308.32,493.679 6279.5,491C 6271.57,489.603 6263.91,487.436 6256.5,484.5C 6257.86,479.057 6259.53,473.723 6261.5,468.5C 6283.26,479.294 6302.42,475.961 6319,458.5C 6332.7,431.104 6327.87,407.27 6304.5,387C 6301.47,385.156 6298.47,383.322 6295.5,381.5C 6296.95,376.608 6298.95,371.941 6301.5,367.5 Z"/></g>
<g><path style="opacity:0.998" fill="#9c03c5" d="M 6295.5,381.5 C 6298.47,383.322 6301.47,385.156 6304.5,387C 6327.87,407.27 6332.7,431.104 6319,458.5C 6302.42,475.961 6283.26,479.294 6261.5,468.5C 6270.37,438.438 6281.71,409.438 6295.5,381.5 Z"/></g>
<g><path style="opacity:0.982" fill="#8dacfd" d="M 8319.5,325.5 C 8335.47,355.67 8351.3,386.004 8367,416.5C 8377.72,418.88 8385.05,425.213 8389,435.5C 8390.99,457.175 8381.16,467.341 8359.5,466C 8347.68,462.369 8341.35,454.369 8340.5,442C 8341.3,436.962 8342.47,432.129 8344,427.5C 8331.82,403.807 8319.65,380.14 8307.5,356.5C 8312.25,346.59 8316.25,336.257 8319.5,325.5 Z"/></g>
<g><path style="opacity:0.99" fill="#7ba3fe" d="M 8482.5,358.5 C 8488.74,363.236 8494.58,368.569 8500,374.5C 8505.96,382.128 8512.29,389.462 8519,396.5C 8518.44,444.173 8517.78,491.84 8517,539.5C 8524.11,553.061 8522.61,565.561 8512.5,577C 8499.17,587 8485.83,587 8472.5,577C 8461.93,564.696 8460.77,551.529 8469,537.5C 8471.73,534.269 8474.89,531.603 8478.5,529.5C 8480.56,472.521 8481.9,415.521 8482.5,358.5 Z"/></g>
<g><path style="opacity:0.896" fill="#cbcbfd" d="M 7766.5,414.5 C 7776.24,414.302 7780.07,418.969 7778,428.5C 7775.1,433.155 7770.94,434.655 7765.5,433C 7763.17,432 7761.5,430.333 7760.5,428C 7740.82,427.833 7721.16,427.333 7701.5,426.5C 7702.98,424.517 7704.65,422.684 7706.5,421C 7724.5,420.667 7742.5,420.333 7760.5,420C 7761.92,417.469 7763.92,415.635 7766.5,414.5 Z"/></g>
<g><path style="opacity:0.985" fill="#fe4300" d="M 7562.5,454.5 C 7593.54,542.599 7606.04,633.265 7600,726.5C 7593.34,813.655 7566.84,893.989 7520.5,967.5C 7567.65,800.571 7581.32,630.904 7561.5,458.5C 7561.51,456.955 7561.84,455.622 7562.5,454.5 Z"/></g>
<g><path style="opacity:0.998" fill="#b9208a" d="M 6547.5,576.5 C 6543.32,593.722 6539.66,611.055 6536.5,628.5C 6483.35,700.248 6411.68,736.915 6321.5,738.5C 6290.53,737.838 6260.2,733.172 6230.5,724.5C 6230.57,718.471 6230.24,712.471 6229.5,706.5C 6231.96,708.837 6234.96,710.337 6238.5,711C 6274.54,721.281 6311.2,724.614 6348.5,721C 6441.95,708.732 6508.11,659.899 6547,574.5C 6547.46,575.094 6547.63,575.761 6547.5,576.5 Z"/></g>
<g><path style="opacity:0.988" fill="#699afe" d="M 8610.5,603.5 C 8612.05,604.23 8612.88,605.563 8613,607.5C 8619.12,647.422 8619.78,687.422 8615,727.5C 8611.48,736.565 8607.82,745.565 8604,754.5C 8590.77,772.021 8573.6,777.521 8552.5,771C 8529.55,759.599 8521.39,741.432 8528,716.5C 8538.8,694.349 8556.3,685.349 8580.5,689.5C 8591.08,661.015 8601.08,632.348 8610.5,603.5 Z"/></g>
<g><path style="opacity:0.998" fill="#6192f8" d="M 8910.5,599.5 C 8912.35,619.302 8913.35,639.302 8913.5,659.5C 8912.73,660.172 8912.07,661.005 8911.5,662C 8826.52,684.327 8741.52,706.494 8656.5,728.5C 8658.85,709.931 8660.18,691.264 8660.5,672.5C 8743.23,651.318 8825.89,629.818 8908.5,608C 8910.32,605.544 8910.99,602.711 8910.5,599.5 Z"/></g>
<g><path style="opacity:0.998" fill="#bc2386" d="M 6536.5,628.5 C 6534.09,644.788 6532.09,661.121 6530.5,677.5C 6474.12,734.262 6405.62,762.929 6325,763.5C 6294.23,763.3 6264.07,758.967 6234.5,750.5C 6233.29,750.747 6232.62,751.414 6232.5,752.5C 6231.41,743.347 6230.74,734.014 6230.5,724.5C 6260.2,733.172 6290.53,737.838 6321.5,738.5C 6411.68,736.915 6483.35,700.248 6536.5,628.5 Z"/></g>
<g><path style="opacity:0.998" fill="#bd2481" d="M 6530.5,677.5 C 6529.88,688.489 6529.55,699.489 6529.5,710.5C 6528.69,708.708 6528.19,706.708 6528,704.5C 6479.34,748.232 6422.17,773.065 6356.5,779C 6314.83,782.3 6273.83,778.466 6233.5,767.5C 6232.55,762.595 6232.22,757.595 6232.5,752.5C 6232.62,751.414 6233.29,750.747 6234.5,750.5C 6264.07,758.967 6294.23,763.3 6325,763.5C 6405.62,762.929 6474.12,734.262 6530.5,677.5 Z"/></g>
<g><path style="opacity:0.999" fill="#5e8df3" d="M 8913.5,659.5 C 8912.96,670.159 8912.62,680.825 8912.5,691.5C 8911.47,692.687 8910.13,693.52 8908.5,694C 8822.77,716.348 8737.11,738.848 8651.5,761.5C 8653.82,750.611 8655.48,739.611 8656.5,728.5C 8741.52,706.494 8826.52,684.327 8911.5,662C 8912.07,661.005 8912.73,660.172 8913.5,659.5 Z"/></g>
<g><path style="opacity:0.999" fill="#bf267e" d="M 6529.5,710.5 C 6529.37,716.181 6529.03,721.848 6528.5,727.5C 6453.36,784.952 6368.7,806.452 6274.5,792C 6261.02,789.795 6247.68,786.962 6234.5,783.5C 6233.9,778.187 6233.57,772.854 6233.5,767.5C 6273.83,778.466 6314.83,782.3 6356.5,779C 6422.17,773.065 6479.34,748.232 6528,704.5C 6528.19,706.708 6528.69,708.708 6529.5,710.5 Z"/></g>
<g><path style="opacity:0.998" fill="#5b89ef" d="M 8912.5,691.5 C 8911.71,705.693 8910.37,719.693 8908.5,733.5C 8820.43,756.183 8732.43,779.183 8644.5,802.5C 8643.61,801.675 8643.28,800.675 8643.5,799.5C 8646.48,786.901 8649.15,774.234 8651.5,761.5C 8737.11,738.848 8822.77,716.348 8908.5,694C 8910.13,693.52 8911.47,692.687 8912.5,691.5 Z"/></g>
<g><path style="opacity:0.998" fill="#c0277b" d="M 6528.5,727.5 C 6529.37,731.768 6529.71,736.102 6529.5,740.5C 6528.78,740.082 6528.28,739.416 6528,738.5C 6481.24,775.214 6428.07,796.714 6368.5,803C 6323.99,807.681 6280.16,804.181 6237,792.5C 6236.77,793.737 6236.27,794.737 6235.5,795.5C 6235.35,791.481 6235.02,787.481 6234.5,783.5C 6247.68,786.962 6261.02,789.795 6274.5,792C 6368.7,806.452 6453.36,784.952 6528.5,727.5 Z"/></g>
<g><path style="opacity:0.998" fill="#5985eb" d="M 8908.5,733.5 C 8907.49,746.921 8905.82,760.255 8903.5,773.5C 8812.55,797.373 8721.55,821.039 8630.5,844.5C 8630.5,843.5 8630.5,842.5 8630.5,841.5C 8634.86,827.416 8639.2,813.416 8643.5,799.5C 8643.28,800.675 8643.61,801.675 8644.5,802.5C 8732.43,779.183 8820.43,756.183 8908.5,733.5 Z"/></g>
<g><path style="opacity:0.999" fill="#c22978" d="M 6529.5,740.5 C 6529.26,749.208 6529.59,757.874 6530.5,766.5C 6529.75,767.531 6529.08,768.698 6528.5,770C 6500.75,788.71 6471.08,803.376 6439.5,814C 6424.21,817.828 6408.88,821.495 6393.5,825C 6355.77,830.587 6318.11,830.921 6280.5,826C 6266.7,823.006 6252.7,820.172 6238.5,817.5C 6237.5,810.157 6236.5,802.823 6235.5,795.5C 6236.27,794.737 6236.77,793.737 6237,792.5C 6280.16,804.181 6323.99,807.681 6368.5,803C 6428.07,796.714 6481.24,775.214 6528,738.5C 6528.28,739.416 6528.78,740.082 6529.5,740.5 Z"/></g>
<g><path style="opacity:0.999" fill="#c52c72" d="M 6530.5,766.5 C 6530.71,777.2 6531.37,787.867 6532.5,798.5C 6455.75,844.884 6372.75,862.051 6283.5,850C 6270.02,848.204 6256.69,845.704 6243.5,842.5C 6242.89,842.624 6242.56,842.957 6242.5,843.5C 6240.72,835.035 6239.38,826.368 6238.5,817.5C 6252.7,820.172 6266.7,823.006 6280.5,826C 6318.11,830.921 6355.77,830.587 6393.5,825C 6408.88,821.495 6424.21,817.828 6439.5,814C 6471.08,803.376 6500.75,788.71 6528.5,770C 6529.08,768.698 6529.75,767.531 6530.5,766.5 Z"/></g>
<g><path style="opacity:0.998" fill="#557fe5" d="M 8903.5,773.5 C 8899.98,795.772 8895.31,817.772 8889.5,839.5C 8792.8,865.417 8696.14,890.417 8599.5,914.5C 8610.83,890.499 8621.16,866.165 8630.5,841.5C 8630.5,842.5 8630.5,843.5 8630.5,844.5C 8721.55,821.039 8812.55,797.373 8903.5,773.5 Z"/></g>
<g><path style="opacity:0.998" fill="#c62d6f" d="M 6532.5,798.5 C 6532.83,802.5 6533.17,806.5 6533.5,810.5C 6442.25,861.658 6345.58,875.325 6243.5,851.5C 6242.73,848.904 6242.4,846.237 6242.5,843.5C 6242.56,842.957 6242.89,842.624 6243.5,842.5C 6256.69,845.704 6270.02,848.204 6283.5,850C 6372.75,862.051 6455.75,844.884 6532.5,798.5 Z"/></g>
<g><path style="opacity:0.999" fill="#c82f6c" d="M 6533.5,810.5 C 6534.17,816.167 6534.83,821.833 6535.5,827.5C 6456.97,871.426 6372.97,887.259 6283.5,875C 6271.08,873.263 6258.74,871.096 6246.5,868.5C 6244.97,862.961 6243.97,857.294 6243.5,851.5C 6345.58,875.325 6442.25,861.658 6533.5,810.5 Z"/></g>
<g><path style="opacity:0.997" fill="#c93069" d="M 6535.5,827.5 C 6536.05,830.807 6536.38,834.14 6536.5,837.5C 6461.26,878.515 6380.93,894.348 6295.5,885C 6279.99,883.471 6264.66,880.971 6249.5,877.5C 6248.7,877.957 6248.37,878.624 6248.5,879.5C 6247.31,876.054 6246.65,872.387 6246.5,868.5C 6258.74,871.096 6271.08,873.263 6283.5,875C 6372.97,887.259 6456.97,871.426 6535.5,827.5 Z"/></g>
<g><path style="opacity:0.998" fill="#cb3266" d="M 6536.5,837.5 C 6538.15,846.413 6539.48,855.413 6540.5,864.5C 6457.8,906.45 6370.46,920.617 6278.5,907C 6269.8,905.606 6261.13,904.106 6252.5,902.5C 6250.91,894.879 6249.58,887.212 6248.5,879.5C 6248.37,878.624 6248.7,877.957 6249.5,877.5C 6264.66,880.971 6279.99,883.471 6295.5,885C 6380.93,894.348 6461.26,878.515 6536.5,837.5 Z"/></g>
<g><path style="opacity:0.997" fill="#cd3461" d="M 6540.5,864.5 C 6542.04,870.713 6543.04,877.047 6543.5,883.5C 6452.97,926.817 6358.3,939.15 6259.5,920.5C 6258.42,920.685 6257.42,921.018 6256.5,921.5C 6255.32,915.128 6253.99,908.795 6252.5,902.5C 6261.13,904.106 6269.8,905.606 6278.5,907C 6370.46,920.617 6457.8,906.45 6540.5,864.5 Z"/></g>
<g><path style="opacity:0.998" fill="#5079df" d="M 8889.5,839.5 C 8884.51,859.814 8878.51,879.814 8871.5,899.5C 8768.07,926.19 8664.74,953.19 8561.5,980.5C 8574.68,958.819 8587.34,936.819 8599.5,914.5C 8696.14,890.417 8792.8,865.417 8889.5,839.5 Z"/></g>
<g><path style="opacity:0.999" fill="#cf365e" d="M 6543.5,883.5 C 6545.25,888.572 6546.25,893.905 6546.5,899.5C 6472.82,934.867 6395.16,949.367 6313.5,943C 6295.73,941.571 6278.07,939.404 6260.5,936.5C 6259.01,931.539 6257.68,926.539 6256.5,921.5C 6257.42,921.018 6258.42,920.685 6259.5,920.5C 6358.3,939.15 6452.97,926.817 6543.5,883.5 Z"/></g>
<g><path style="opacity:0.997" fill="#d0375b" d="M 6546.5,899.5 C 6547.49,902.743 6548.49,906.076 6549.5,909.5C 6457.51,951.275 6361.84,963.608 6262.5,946.5C 6261.52,943.237 6260.85,939.903 6260.5,936.5C 6278.07,939.404 6295.73,941.571 6313.5,943C 6395.16,949.367 6472.82,934.867 6546.5,899.5 Z"/></g>
<g><path style="opacity:0.999" fill="#d23958" d="M 6549.5,909.5 C 6551.3,918.478 6552.96,927.478 6554.5,936.5C 6553.88,936.389 6553.38,936.056 6553,935.5C 6489.89,964.358 6423.56,978.691 6354,978.5C 6325.66,978.128 6297.49,975.794 6269.5,971.5C 6266.72,963.399 6264.39,955.066 6262.5,946.5C 6361.84,963.608 6457.51,951.275 6549.5,909.5 Z"/></g>
<g><path style="opacity:0.998" fill="#4c73d9" d="M 8871.5,899.5 C 8864.67,920.313 8856.67,940.646 8847.5,960.5C 8736.39,989.027 8625.39,1018.03 8514.5,1047.5C 8513.89,1047.38 8513.56,1047.04 8513.5,1046.5C 8530,1024.82 8546,1002.82 8561.5,980.5C 8664.74,953.19 8768.07,926.19 8871.5,899.5 Z"/></g>
<g><path style="opacity:0.999" fill="#d43b53" d="M 6554.5,936.5 C 6556.28,941.272 6557.61,946.272 6558.5,951.5C 6482.41,985.405 6402.74,999.238 6319.5,993C 6304.14,991.682 6288.81,990.182 6273.5,988.5C 6272.01,982.867 6270.68,977.201 6269.5,971.5C 6297.49,975.794 6325.66,978.128 6354,978.5C 6423.56,978.691 6489.89,964.358 6553,935.5C 6553.38,936.056 6553.88,936.389 6554.5,936.5 Z"/></g>
<g><path style="opacity:0.998" fill="#d63d50" d="M 6558.5,951.5 C 6560.17,957.5 6561.83,963.5 6563.5,969.5C 6471.91,1007.94 6376.91,1019.94 6278.5,1005.5C 6277.03,999.758 6275.36,994.092 6273.5,988.5C 6288.81,990.182 6304.14,991.682 6319.5,993C 6402.74,999.238 6482.41,985.405 6558.5,951.5 Z"/></g>
<g><path style="opacity:0.999" fill="#d83f4c" d="M 6563.5,969.5 C 6564.63,974.888 6565.96,980.221 6567.5,985.5C 6476.6,1023.32 6382.26,1035.66 6284.5,1022.5C 6282.12,1017.04 6280.12,1011.38 6278.5,1005.5C 6376.91,1019.94 6471.91,1007.94 6563.5,969.5 Z"/></g>
<g><path style="opacity:0.997" fill="#d94049" d="M 6567.5,985.5 C 6568.58,988.402 6569.24,991.402 6569.5,994.5C 6478.53,1031.97 6384.2,1044.3 6286.5,1031.5C 6285.68,1028.54 6285.01,1025.54 6284.5,1022.5C 6382.26,1035.66 6476.6,1023.32 6567.5,985.5 Z"/></g>
<g><path style="opacity:0.998" fill="#486dd3" d="M 8847.5,960.5 C 8837.96,981.905 8827.63,1002.9 8816.5,1023.5C 8695.01,1054.54 8573.68,1086.2 8452.5,1118.5C 8451.89,1118.38 8451.56,1118.04 8451.5,1117.5C 8472.94,1094.4 8493.61,1070.73 8513.5,1046.5C 8513.56,1047.04 8513.89,1047.38 8514.5,1047.5C 8625.39,1018.03 8736.39,989.027 8847.5,960.5 Z"/></g>
<g><path style="opacity:0.998" fill="#db4246" d="M 6569.5,994.5 C 6572.41,1001.89 6574.74,1009.56 6576.5,1017.5C 6575.94,1018.79 6574.94,1019.62 6573.5,1020C 6483.68,1055.07 6391.01,1067.24 6295.5,1056.5C 6292.32,1048.31 6289.32,1039.98 6286.5,1031.5C 6384.2,1044.3 6478.53,1031.97 6569.5,994.5 Z"/></g>
<g><path style="opacity:0.999" fill="#4568ce" d="M 8816.5,1023.5 C 8807.67,1039.17 8798.34,1054.5 8788.5,1069.5C 8657.29,1104.04 8526.29,1138.04 8395.5,1171.5C 8414.44,1153.89 8433.11,1135.89 8451.5,1117.5C 8451.56,1118.04 8451.89,1118.38 8452.5,1118.5C 8573.68,1086.2 8695.01,1054.54 8816.5,1023.5 Z"/></g>
<g><path style="opacity:0.999" fill="#dd4541" d="M 6576.5,1017.5 C 6579.74,1025.89 6582.41,1034.56 6584.5,1043.5C 6494.39,1079.42 6401.05,1092.09 6304.5,1081.5C 6300.93,1073.47 6297.93,1065.14 6295.5,1056.5C 6391.01,1067.24 6483.68,1055.07 6573.5,1020C 6574.94,1019.62 6575.94,1018.79 6576.5,1017.5 Z"/></g>
<g><path style="opacity:0.999" fill="#e1483b" d="M 6584.5,1043.5 C 6587.74,1051.22 6590.41,1059.22 6592.5,1067.5C 6551.46,1084.67 6508.79,1096.51 6464.5,1103C 6414.67,1109.81 6364.67,1111.31 6314.5,1107.5C 6310.6,1099.14 6307.27,1090.48 6304.5,1081.5C 6401.05,1092.09 6494.39,1079.42 6584.5,1043.5 Z"/></g>
<g><path style="opacity:0.991" fill="#fe5400" d="M 7317.5,1069.5 C 7291.88,1122.11 7261.71,1171.77 7227,1218.5C 7226.31,1219.44 7226.47,1220.1 7227.5,1220.5C 7182.73,1242.54 7136.4,1260.87 7088.5,1275.5C 7106.1,1255.39 7123.94,1235.39 7142,1215.5C 7150.91,1204.68 7159.57,1193.68 7168,1182.5C 7168.69,1181.56 7168.53,1180.9 7167.5,1180.5C 7223.11,1151.24 7273.11,1114.24 7317.5,1069.5 Z"/></g>
<g><path style="opacity:0.999" fill="#e44b35" d="M 6592.5,1067.5 C 6597.27,1078.13 6601.27,1089.13 6604.5,1100.5C 6515.61,1134.49 6423.61,1148.15 6328.5,1141.5C 6323.26,1130.47 6318.6,1119.14 6314.5,1107.5C 6364.67,1111.31 6414.67,1109.81 6464.5,1103C 6508.79,1096.51 6551.46,1084.67 6592.5,1067.5 Z"/></g>
<g><path style="opacity:0.998" fill="#4263c9" d="M 8788.5,1069.5 C 8774.7,1090.1 8759.7,1109.77 8743.5,1128.5C 8599.79,1165.68 8456.12,1203.01 8312.5,1240.5C 8340.43,1217.91 8368.1,1194.91 8395.5,1171.5C 8526.29,1138.04 8657.29,1104.04 8788.5,1069.5 Z"/></g>
<g><path style="opacity:0.998" fill="#e64d30" d="M 6604.5,1100.5 C 6607.01,1106.01 6609.34,1111.68 6611.5,1117.5C 6522.46,1150.74 6430.46,1164.41 6335.5,1158.5C 6332.6,1153.14 6330.26,1147.47 6328.5,1141.5C 6423.61,1148.15 6515.61,1134.49 6604.5,1100.5 Z"/></g>
<g><path style="opacity:0.999" fill="#e84f2c" d="M 6611.5,1117.5 C 6613.5,1122.5 6615.5,1127.5 6617.5,1132.5C 6528.79,1165.51 6437.12,1179.51 6342.5,1174.5C 6339.78,1169.34 6337.45,1164 6335.5,1158.5C 6430.46,1164.41 6522.46,1150.74 6611.5,1117.5 Z"/></g>
<g><path style="opacity:0.998" fill="#3f5fc5" d="M 8743.5,1128.5 C 8731.49,1143.17 8718.49,1156.84 8704.5,1169.5C 8552.14,1209.34 8399.8,1249.34 8247.5,1289.5C 8246.89,1289.38 8246.56,1289.04 8246.5,1288.5C 8268.49,1272.5 8290.49,1256.5 8312.5,1240.5C 8456.12,1203.01 8599.79,1165.68 8743.5,1128.5 Z"/></g>
<g><path style="opacity:0.999" fill="#ea5228" d="M 6617.5,1132.5 C 6620.51,1140.51 6623.51,1148.51 6626.5,1156.5C 6538.86,1189.83 6448.19,1204.16 6354.5,1199.5C 6350.13,1191.42 6346.13,1183.08 6342.5,1174.5C 6437.12,1179.51 6528.79,1165.51 6617.5,1132.5 Z"/></g>
<g><path style="opacity:0.997" fill="#ec5323" d="M 6626.5,1156.5 C 6629.41,1161.98 6632.07,1167.65 6634.5,1173.5C 6602.03,1184.71 6569.03,1194.21 6535.5,1202C 6478.6,1213.55 6421.26,1219.05 6363.5,1218.5C 6359.72,1212.6 6356.72,1206.27 6354.5,1199.5C 6448.19,1204.16 6538.86,1189.83 6626.5,1156.5 Z"/></g>
<g><path style="opacity:0.998" fill="#3d5cc2" d="M 8704.5,1169.5 C 8693.77,1181.57 8682.1,1192.57 8669.5,1202.5C 8509.06,1244.03 8348.72,1286.03 8188.5,1328.5C 8187.89,1328.38 8187.56,1328.04 8187.5,1327.5C 8206.89,1314.11 8226.56,1301.11 8246.5,1288.5C 8246.56,1289.04 8246.89,1289.38 8247.5,1289.5C 8399.8,1249.34 8552.14,1209.34 8704.5,1169.5 Z"/></g>
<g><path style="opacity:1" fill="#ee551f" d="M 6634.5,1173.5 C 6637.5,1180.83 6640.5,1188.17 6643.5,1195.5C 6628.12,1202.58 6612.12,1208.41 6595.5,1213C 6551.32,1225.9 6506.32,1234.57 6460.5,1239C 6432.18,1240.67 6404.18,1242.51 6376.5,1244.5C 6371.66,1236.15 6367.33,1227.48 6363.5,1218.5C 6421.26,1219.05 6478.6,1213.55 6535.5,1202C 6569.03,1194.21 6602.03,1184.71 6634.5,1173.5 Z"/></g>
<g><path style="opacity:0.989" fill="#fe5a00" d="M 7167.5,1180.5 C 7168.53,1180.9 7168.69,1181.56 7168,1182.5C 7159.57,1193.68 7150.91,1204.68 7142,1215.5C 7123.94,1235.39 7106.1,1255.39 7088.5,1275.5C 7040.02,1290.29 6990.69,1301.29 6940.5,1308.5C 6970.05,1287.51 6998.05,1264.34 7024.5,1239C 7023.94,1238.62 7023.61,1238.12 7023.5,1237.5C 7073.5,1223.5 7121.5,1204.5 7167.5,1180.5 Z"/></g>
<g><path style="opacity:0.999" fill="#f1581a" d="M 6643.5,1195.5 C 6647.68,1204 6651.68,1212.67 6655.5,1221.5C 6654.74,1221.08 6653.9,1220.74 6653,1220.5C 6567.74,1252.4 6479.57,1267.74 6388.5,1266.5C 6384,1259.49 6380,1252.16 6376.5,1244.5C 6404.18,1242.51 6432.18,1240.67 6460.5,1239C 6506.32,1234.57 6551.32,1225.9 6595.5,1213C 6612.12,1208.41 6628.12,1202.58 6643.5,1195.5 Z"/></g>
<g><path style="opacity:0.998" fill="#3b59bf" d="M 8669.5,1202.5 C 8652.13,1219.01 8633.8,1234.35 8614.5,1248.5C 8448.07,1291.36 8281.74,1334.69 8115.5,1378.5C 8114.58,1378.46 8113.92,1378.12 8113.5,1377.5C 8137.78,1360.35 8162.45,1343.68 8187.5,1327.5C 8187.56,1328.04 8187.89,1328.38 8188.5,1328.5C 8348.72,1286.03 8509.06,1244.03 8669.5,1202.5 Z"/></g>
<g><path style="opacity:0.998" fill="#f45b14" d="M 6655.5,1221.5 C 6659.05,1227.93 6662.05,1234.59 6664.5,1241.5C 6663.94,1242.79 6662.94,1243.62 6661.5,1244C 6577.6,1274.93 6490.94,1290.43 6401.5,1290.5C 6396.37,1283.01 6392.04,1275.01 6388.5,1266.5C 6479.57,1267.74 6567.74,1252.4 6653,1220.5C 6653.9,1220.74 6654.74,1221.08 6655.5,1221.5 Z"/></g>
<g><path style="opacity:0.987" fill="#fe6000" d="M 7023.5,1237.5 C 7023.61,1238.12 7023.94,1238.62 7024.5,1239C 6998.05,1264.34 6970.05,1287.51 6940.5,1308.5C 6890.82,1316.23 6840.82,1319.9 6790.5,1319.5C 6818.78,1304.39 6846.44,1288.23 6873.5,1271C 6874.25,1270.33 6874.59,1269.5 6874.5,1268.5C 6925.03,1262.13 6974.7,1251.79 7023.5,1237.5 Z"/></g>
<g><path style="opacity:0.998" fill="#3956bc" d="M 8614.5,1248.5 C 8593.42,1265.24 8571.75,1281.24 8549.5,1296.5C 8382.25,1339.77 8215.08,1383.44 8048,1427.5C 8046.93,1427.47 8046.1,1427.14 8045.5,1426.5C 8067.58,1409.42 8090.25,1393.09 8113.5,1377.5C 8113.92,1378.12 8114.58,1378.46 8115.5,1378.5C 8281.74,1334.69 8448.07,1291.36 8614.5,1248.5 Z"/></g>
<g><path style="opacity:0.999" fill="#f75e0e" d="M 6664.5,1241.5 C 6670.74,1252.98 6676.74,1264.64 6682.5,1276.5C 6681.27,1276.28 6680.27,1275.61 6679.5,1274.5C 6596.19,1305.63 6510.19,1322.63 6421.5,1325.5C 6414.08,1314.33 6407.41,1302.66 6401.5,1290.5C 6490.94,1290.43 6577.6,1274.93 6661.5,1244C 6662.94,1243.62 6663.94,1242.79 6664.5,1241.5 Z"/></g>
<g><path style="opacity:0.989" fill="#fe6400" d="M 6874.5,1268.5 C 6874.59,1269.5 6874.25,1270.33 6873.5,1271C 6846.44,1288.23 6818.78,1304.39 6790.5,1319.5C 6777.1,1319.91 6763.77,1319.25 6750.5,1317.5C 6743.25,1305.33 6736.25,1293 6729.5,1280.5C 6778.01,1278.53 6826.35,1274.53 6874.5,1268.5 Z"/></g>
<g><path style="opacity:0.998" fill="#fa6108" d="M 6682.5,1276.5 C 6686.1,1283.37 6689.44,1290.37 6692.5,1297.5C 6609.75,1328.98 6524.09,1345.98 6435.5,1348.5C 6430.08,1341.34 6425.42,1333.67 6421.5,1325.5C 6510.19,1322.63 6596.19,1305.63 6679.5,1274.5C 6680.27,1275.61 6681.27,1276.28 6682.5,1276.5 Z"/></g>
<g><path style="opacity:0.998" fill="#fe6401" d="M 6692.5,1297.5 C 6701.75,1314.33 6710.75,1331.33 6719.5,1348.5C 6719.63,1349.38 6719.3,1350.04 6718.5,1350.5C 6665.38,1370.95 6610.72,1385.78 6554.5,1395C 6526.75,1399.09 6499.09,1402.59 6471.5,1405.5C 6458.72,1387.04 6446.72,1368.04 6435.5,1348.5C 6524.09,1345.98 6609.75,1328.98 6692.5,1297.5 Z"/></g>
<g><path style="opacity:0.998" fill="#3651b7" d="M 8549.5,1296.5 C 8510.92,1324.07 8471.25,1350.07 8430.5,1374.5C 8272.58,1415.44 8114.74,1456.77 7957,1498.5C 7956.24,1498.43 7955.74,1498.1 7955.5,1497.5C 7984.37,1472.4 8014.37,1448.73 8045.5,1426.5C 8046.1,1427.14 8046.93,1427.47 8048,1427.5C 8215.08,1383.44 8382.25,1339.77 8549.5,1296.5 Z"/></g>
<g><path style="opacity:0.998" fill="#fe6000" d="M 6719.5,1348.5 C 6731.42,1368.66 6743.08,1389 6754.5,1409.5C 6714.52,1426.33 6673.18,1439.49 6630.5,1449C 6592.25,1457.82 6553.58,1463.99 6514.5,1467.5C 6499.42,1447.41 6485.09,1426.74 6471.5,1405.5C 6499.09,1402.59 6526.75,1399.09 6554.5,1395C 6610.72,1385.78 6665.38,1370.95 6718.5,1350.5C 6719.3,1350.04 6719.63,1349.38 6719.5,1348.5 Z"/></g>
<g><path style="opacity:0.997" fill="#324cb2" d="M 8430.5,1374.5 C 8368.83,1413.34 8306.17,1450.67 8242.5,1486.5C 8114.87,1519.28 7987.37,1552.61 7860,1586.5C 7859.24,1586.43 7858.74,1586.1 7858.5,1585.5C 7889.01,1553.98 7921.35,1524.64 7955.5,1497.5C 7955.74,1498.1 7956.24,1498.43 7957,1498.5C 8114.74,1456.77 8272.58,1415.44 8430.5,1374.5 Z"/></g>
<g><path style="opacity:0.998" fill="#fe5a00" d="M 6754.5,1409.5 C 6767.13,1429.81 6779.8,1450.14 6792.5,1470.5C 6733.78,1493.1 6673.44,1510.27 6611.5,1522C 6594.59,1525.15 6577.59,1527.65 6560.5,1529.5C 6544.68,1509.2 6529.35,1488.53 6514.5,1467.5C 6553.58,1463.99 6592.25,1457.82 6630.5,1449C 6673.18,1439.49 6714.52,1426.33 6754.5,1409.5 Z"/></g>
<g><path style="opacity:0.997" fill="#fe5400" d="M 6792.5,1470.5 C 6804.86,1489.85 6817.19,1509.18 6829.5,1528.5C 6758.73,1557.44 6685.73,1578.44 6610.5,1591.5C 6593.48,1571.15 6576.82,1550.48 6560.5,1529.5C 6577.59,1527.65 6594.59,1525.15 6611.5,1522C 6673.44,1510.27 6733.78,1493.1 6792.5,1470.5 Z"/></g>
<g><path style="opacity:0.997" fill="#2e45ab" d="M 8242.5,1486.5 C 8181.51,1522.66 8120.84,1559.33 8060.5,1596.5C 7968.73,1620.09 7877.07,1644.09 7785.5,1668.5C 7784.7,1668.04 7784.37,1667.38 7784.5,1666.5C 7807.72,1638.28 7832.39,1611.28 7858.5,1585.5C 7858.74,1586.1 7859.24,1586.43 7860,1586.5C 7987.37,1552.61 8114.87,1519.28 8242.5,1486.5 Z"/></g>
<g><path style="opacity:0.997" fill="#fe4e00" d="M 6829.5,1528.5 C 6846.55,1552.22 6863.22,1576.22 6879.5,1600.5C 6847.93,1614.31 6815.59,1626.47 6782.5,1637C 6746.99,1647.63 6711.32,1657.13 6675.5,1665.5C 6653.12,1641.45 6631.45,1616.79 6610.5,1591.5C 6685.73,1578.44 6758.73,1557.44 6829.5,1528.5 Z"/></g>
<g><path style="opacity:0.995" fill="#8383e9" d="M 8279.5,1603.5 C 8220.67,1606.49 8161.67,1609.16 8102.5,1611.5C 8100.95,1611.49 8099.62,1611.16 8098.5,1610.5C 8127.58,1593.21 8157.08,1576.54 8187,1560.5C 8218.15,1574.37 8248.98,1588.71 8279.5,1603.5 Z"/></g>
<g><path style="opacity:0.996" fill="#2a3fa5" d="M 8060.5,1596.5 C 8022.83,1621.34 7985.5,1646.67 7948.5,1672.5C 7878.63,1691.05 7808.96,1709.05 7739.5,1726.5C 7753.54,1705.75 7768.54,1685.75 7784.5,1666.5C 7784.37,1667.38 7784.7,1668.04 7785.5,1668.5C 7877.07,1644.09 7968.73,1620.09 8060.5,1596.5 Z"/></g>
<g><path style="opacity:0.997" fill="#fe4700" d="M 6879.5,1600.5 C 6894.23,1618.96 6908.23,1637.96 6921.5,1657.5C 6859.54,1685.6 6795.21,1706.93 6728.5,1721.5C 6710.13,1703.46 6692.46,1684.8 6675.5,1665.5C 6711.32,1657.13 6746.99,1647.63 6782.5,1637C 6815.59,1626.47 6847.93,1614.31 6879.5,1600.5 Z"/></g>
<g><path style="opacity:0.993" fill="#7e7ee4" d="M 8279.5,1603.5 C 8297.57,1610.74 8315.23,1618.74 8332.5,1627.5C 8331.05,1628.3 8329.38,1628.8 8327.5,1629C 8266.51,1631.53 8205.51,1633.69 8144.5,1635.5C 8128.4,1628.62 8112.4,1621.45 8096.5,1614C 8095.46,1612.15 8096.13,1610.98 8098.5,1610.5C 8099.62,1611.16 8100.95,1611.49 8102.5,1611.5C 8161.67,1609.16 8220.67,1606.49 8279.5,1603.5 Z"/></g>
<g><path style="opacity:0.995" fill="#7878de" d="M 8332.5,1627.5 C 8337.87,1629.35 8343.04,1631.68 8348,1634.5C 8348.73,1646.16 8349.23,1657.83 8349.5,1669.5C 8346.23,1670.82 8342.57,1671.49 8338.5,1671.5C 8302.84,1673.01 8267.17,1674.35 8231.5,1675.5C 8202.25,1662.54 8173.25,1649.2 8144.5,1635.5C 8205.51,1633.69 8266.51,1631.53 8327.5,1629C 8329.38,1628.8 8331.05,1628.3 8332.5,1627.5 Z"/></g>
<g><path style="opacity:0.997" fill="#fe4100" d="M 6921.5,1657.5 C 6938.21,1678.21 6954.54,1699.21 6970.5,1720.5C 6912.93,1747.36 6853.27,1768.69 6791.5,1784.5C 6769.5,1764.5 6748.5,1743.5 6728.5,1721.5C 6795.21,1706.93 6859.54,1685.6 6921.5,1657.5 Z"/></g>
<g><path style="opacity:0.987" fill="#7272d8" d="M 8452.5,1700.5 C 8422.17,1701.58 8391.84,1702.58 8361.5,1703.5C 8357.82,1679.02 8367.15,1661.52 8389.5,1651C 8410.82,1644.04 8428.99,1648.87 8444,1665.5C 8451.74,1676.16 8454.57,1687.83 8452.5,1700.5 Z"/></g>
<g><path style="opacity:1" fill="#8686e2" d="M 8397.5,1657.5 C 8411.2,1656.06 8417.36,1662.06 8416,1675.5C 8410.53,1687.82 8401.03,1693.32 8387.5,1692C 8376.31,1685.69 8374.47,1677.53 8382,1667.5C 8386.34,1662.62 8391.5,1659.29 8397.5,1657.5 Z"/></g>
<g><path style="opacity:1" fill="#9f9fec" d="M 8397.5,1664.5 C 8403.87,1664.17 8407.87,1667.01 8409.5,1673C 8408.78,1676.33 8407.78,1679.5 8406.5,1682.5C 8402.62,1684.51 8398.46,1685.84 8394,1686.5C 8384.93,1684.69 8382.59,1679.69 8387,1671.5C 8390,1668.26 8393.5,1665.93 8397.5,1664.5 Z"/></g>
<g><path style="opacity:0.99" fill="#7070d6" d="M 8349.5,1669.5 C 8351.54,1690.33 8354.54,1711.16 8358.5,1732C 8358.17,1732.5 8357.83,1733 8357.5,1733.5C 8315.41,1714.12 8273.41,1694.78 8231.5,1675.5C 8267.17,1674.35 8302.84,1673.01 8338.5,1671.5C 8342.57,1671.49 8346.23,1670.82 8349.5,1669.5 Z"/></g>
<g><path style="opacity:1" fill="#b7b7f6" d="M 8397.5,1668.5 C 8403.37,1668.86 8405.53,1671.86 8404,1677.5C 8401.1,1682.15 8396.94,1683.65 8391.5,1682C 8389.38,1679.78 8389.05,1677.28 8390.5,1674.5C 8392.43,1671.89 8394.77,1669.89 8397.5,1668.5 Z"/></g>
<g><path style="opacity:0.996" fill="#26399f" d="M 7948.5,1672.5 C 7915.03,1697.63 7882.69,1724.29 7851.5,1752.5C 7800.5,1766.33 7749.5,1779.33 7698.5,1791.5C 7710.92,1768.98 7724.59,1747.31 7739.5,1726.5C 7808.96,1709.05 7878.63,1691.05 7948.5,1672.5 Z"/></g>
<g><path style="opacity:0.993" fill="#6b6bd1" d="M 8452.5,1700.5 C 8447.94,1725.72 8432.77,1739.06 8407,1740.5C 8389.7,1740.19 8376.37,1732.85 8367,1718.5C 8364.27,1713.81 8362.44,1708.81 8361.5,1703.5C 8391.84,1702.58 8422.17,1701.58 8452.5,1700.5 Z"/></g>
<g><path style="opacity:0.997" fill="#fe3b00" d="M 6970.5,1720.5 C 6986.18,1738.85 7001.51,1757.52 7016.5,1776.5C 6962.29,1801.24 6906.62,1822.24 6849.5,1839.5C 6829.54,1821.87 6810.2,1803.54 6791.5,1784.5C 6853.27,1768.69 6912.93,1747.36 6970.5,1720.5 Z"/></g>
<g><path style="opacity:0.995" fill="#223399" d="M 7851.5,1752.5 C 7830.73,1772.6 7811.07,1793.6 7792.5,1815.5C 7752.44,1825.52 7712.44,1835.85 7672.5,1846.5C 7671.58,1846.46 7670.92,1846.12 7670.5,1845.5C 7678.82,1826.86 7688.15,1808.86 7698.5,1791.5C 7749.5,1779.33 7800.5,1766.33 7851.5,1752.5 Z"/></g>
<g><path style="opacity:0.996" fill="#fe3500" d="M 7016.5,1776.5 C 7034.18,1796.18 7051.51,1816.18 7068.5,1836.5C 7048.65,1846.85 7028.32,1856.35 7007.5,1865C 6977.6,1877.02 6947.6,1888.52 6917.5,1899.5C 6894.51,1879.84 6871.84,1859.84 6849.5,1839.5C 6906.62,1822.24 6962.29,1801.24 7016.5,1776.5 Z"/></g>
<g><path style="opacity:0.985" fill="#5858be" d="M 8114.5,1851.5 C 8012.3,1856.06 7909.97,1860.39 7807.5,1864.5C 7817.06,1850.1 7827.23,1836.1 7838,1822.5C 7839.47,1820.99 7841.31,1820.33 7843.5,1820.5C 7933.86,1830.76 8024.19,1841.1 8114.5,1851.5 Z"/></g>
<g><path style="opacity:0.994" fill="#1e2e93" d="M 7792.5,1815.5 C 7774.92,1836.74 7758.92,1859.08 7744.5,1882.5C 7711.38,1890.7 7678.38,1899.36 7645.5,1908.5C 7644.89,1908.38 7644.56,1908.04 7644.5,1907.5C 7651.82,1886.2 7660.48,1865.53 7670.5,1845.5C 7670.92,1846.12 7671.58,1846.46 7672.5,1846.5C 7712.44,1835.85 7752.44,1825.52 7792.5,1815.5 Z"/></g>
<g><path style="opacity:0.975" fill="#5153b9" d="M 8608.5,1855.5 C 8595.37,1857.14 8582.04,1857.8 8568.5,1857.5C 8571.14,1862.38 8572.8,1867.38 8573.5,1872.5C 8573.47,1880.08 8571.64,1887.41 8568,1894.5C 8564.37,1899.31 8561.03,1904.31 8558,1909.5C 8553.16,1911.68 8548.66,1914.51 8544.5,1918C 8539.84,1919.66 8535.18,1921.33 8530.5,1923C 8513.17,1927.64 8499.01,1923.14 8488,1909.5C 8486.32,1904.36 8484.82,1899.2 8483.5,1894C 8484.84,1891.68 8485.18,1889.34 8484.5,1887C 8486.65,1880.34 8489.82,1873.84 8494,1867.5C 8496.4,1865.19 8498.9,1863.02 8501.5,1861C 8496.15,1860.47 8490.81,1860.64 8485.5,1861.5C 8507.19,1840.55 8533.19,1832.05 8563.5,1836C 8580.44,1838.36 8595.44,1844.86 8608.5,1855.5 Z"/></g>
<g><path style="opacity:0.996" fill="#fe2e00" d="M 7068.5,1836.5 C 7086.81,1856.47 7105.14,1876.47 7123.5,1896.5C 7078.92,1918.96 7033.25,1938.96 6986.5,1956.5C 6962.62,1938.63 6939.62,1919.63 6917.5,1899.5C 6947.6,1888.52 6977.6,1877.02 7007.5,1865C 7028.32,1856.35 7048.65,1846.85 7068.5,1836.5 Z"/></g>
<g><path style="opacity:0.994" fill="#5252b8" d="M 8114.5,1851.5 C 8187.22,1859.54 8259.88,1867.88 8332.5,1876.5C 8155.17,1883.81 7977.67,1890.81 7800,1897.5C 7795.65,1897.5 7791.49,1897.17 7787.5,1896.5C 7793.17,1885.15 7799.84,1874.49 7807.5,1864.5C 7909.97,1860.39 8012.3,1856.06 8114.5,1851.5 Z"/></g>
<g><path style="opacity:0.979" fill="#4c4db3" d="M 8608.5,1855.5 C 8620.62,1864.73 8629.62,1876.4 8635.5,1890.5C 8634.05,1891.3 8632.38,1891.8 8630.5,1892C 8612.15,1892.58 8593.81,1893.41 8575.5,1894.5C 8574.5,1894.83 8573.5,1895.17 8572.5,1895.5C 8570.94,1899.4 8568.94,1903.06 8566.5,1906.5C 8547.6,1926.08 8524.94,1932.58 8498.5,1926C 8495.15,1923.97 8491.81,1921.97 8488.5,1920C 8486.35,1916.52 8483.85,1913.35 8481,1910.5C 8479.1,1906.37 8478.27,1902.03 8478.5,1897.5C 8475.19,1897.94 8471.85,1898.28 8468.5,1898.5C 8466.05,1898.46 8464.05,1897.79 8462.5,1896.5C 8466.93,1882.63 8474.59,1870.97 8485.5,1861.5C 8490.81,1860.64 8496.15,1860.47 8501.5,1861C 8498.9,1863.02 8496.4,1865.19 8494,1867.5C 8489.82,1873.84 8486.65,1880.34 8484.5,1887C 8485.18,1889.34 8484.84,1891.68 8483.5,1894C 8484.82,1899.2 8486.32,1904.36 8488,1909.5C 8499.01,1923.14 8513.17,1927.64 8530.5,1923C 8535.18,1921.33 8539.84,1919.66 8544.5,1918C 8548.66,1914.51 8553.16,1911.68 8558,1909.5C 8561.03,1904.31 8564.37,1899.31 8568,1894.5C 8571.64,1887.41 8573.47,1880.08 8573.5,1872.5C 8572.8,1867.38 8571.14,1862.38 8568.5,1857.5C 8582.04,1857.8 8595.37,1857.14 8608.5,1855.5 Z"/></g>
<g><path style="opacity:0.997" fill="#4d4db3" d="M 8332.5,1876.5 C 8358.23,1878.99 8383.89,1881.99 8409.5,1885.5C 8412.12,1890.4 8414.45,1895.4 8416.5,1900.5C 8201.2,1908.69 7986.2,1916.69 7771.5,1924.5C 7775.83,1914.51 7781.16,1905.17 7787.5,1896.5C 7791.49,1897.17 7795.65,1897.5 7800,1897.5C 7977.67,1890.81 8155.17,1883.81 8332.5,1876.5 Z"/></g>
<g><path style="opacity:0.996" fill="#fe2800" d="M 7123.5,1896.5 C 7140.11,1914.44 7157.11,1932.11 7174.5,1949.5C 7147.99,1962.26 7121.32,1974.76 7094.5,1987C 7079.33,1993.67 7064,1999.83 7048.5,2005.5C 7027.23,1989.9 7006.57,1973.56 6986.5,1956.5C 7033.25,1938.96 7078.92,1918.96 7123.5,1896.5 Z"/></g>
<g><path style="opacity:1" fill="#515ec4" d="M 8529.5,1852.5 C 8534.65,1851.35 8539.98,1851.18 8545.5,1852C 8545.17,1852.33 8544.83,1852.67 8544.5,1853C 8549.69,1853.56 8554.35,1855.39 8558.5,1858.5C 8560.1,1861.6 8562.27,1864.27 8565,1866.5C 8569.07,1879.97 8566.4,1892.3 8557,1903.5C 8551.36,1908.71 8545.53,1913.55 8539.5,1918C 8532.9,1919.48 8526.23,1920.64 8519.5,1921.5C 8496.72,1919.9 8487.22,1907.9 8491,1885.5C 8495.21,1874.75 8502.04,1866.09 8511.5,1859.5C 8518.19,1856.12 8524.19,1853.79 8529.5,1852.5 Z"/></g>
<g><path style="opacity:1" fill="#566bd2" d="M 8532.5,1861.5 C 8553.15,1862.83 8561.15,1873.5 8556.5,1893.5C 8544.21,1912.43 8527.21,1918.6 8505.5,1912C 8495.6,1899.74 8495.77,1887.57 8506,1875.5C 8513.39,1868.09 8522.23,1863.43 8532.5,1861.5 Z"/></g>
<g><path style="opacity:1" fill="#5d80e7" d="M 8528.5,1873.5 C 8544.24,1874.03 8549.07,1881.36 8543,1895.5C 8540.32,1898.02 8537.82,1900.68 8535.5,1903.5C 8526.66,1908 8518.49,1907 8511,1900.5C 8507.89,1891.17 8510.39,1883.67 8518.5,1878C 8521.82,1876.17 8525.15,1874.67 8528.5,1873.5 Z"/></g>
<g><path style="opacity:0.994" fill="#1a288e" d="M 7744.5,1882.5 C 7732.53,1902.78 7721.86,1923.78 7712.5,1945.5C 7683.08,1952.85 7653.75,1960.52 7624.5,1968.5C 7629.99,1947.69 7636.66,1927.35 7644.5,1907.5C 7644.56,1908.04 7644.89,1908.38 7645.5,1908.5C 7678.38,1899.36 7711.38,1890.7 7744.5,1882.5 Z"/></g>
<g><path style="opacity:0.999" fill="#4949af" d="M 8416.5,1900.5 C 8419.07,1904.64 8421.4,1908.97 8423.5,1913.5C 8212.16,1921.4 8000.83,1929.4 7789.5,1937.5C 7781.45,1937.22 7773.45,1936.38 7765.5,1935C 7767.4,1931.36 7769.4,1927.86 7771.5,1924.5C 7986.2,1916.69 8201.2,1908.69 8416.5,1900.5 Z"/></g>
<g><path style="opacity:0.996" fill="#4545ab" d="M 8423.5,1913.5 C 8429.5,1924.16 8435.5,1934.83 8441.5,1945.5C 8297.16,1951.09 8152.83,1956.76 8008.5,1962.5C 7935.29,1954.81 7862.29,1946.48 7789.5,1937.5C 8000.83,1929.4 8212.16,1921.4 8423.5,1913.5 Z"/></g>
<g><path style="opacity:0.997" fill="#4444aa" d="M 8635.5,1890.5 C 8642.14,1905.35 8644.81,1921.02 8643.5,1937.5C 8581.53,1940.4 8519.53,1942.73 8457.5,1944.5C 8455.05,1927.93 8456.72,1911.93 8462.5,1896.5C 8464.05,1897.79 8466.05,1898.46 8468.5,1898.5C 8471.85,1898.28 8475.19,1897.94 8478.5,1897.5C 8478.27,1902.03 8479.1,1906.37 8481,1910.5C 8483.85,1913.35 8486.35,1916.52 8488.5,1920C 8491.81,1921.97 8495.15,1923.97 8498.5,1926C 8524.94,1932.58 8547.6,1926.08 8566.5,1906.5C 8568.94,1903.06 8570.94,1899.4 8572.5,1895.5C 8573.5,1895.17 8574.5,1894.83 8575.5,1894.5C 8593.81,1893.41 8612.15,1892.58 8630.5,1892C 8632.38,1891.8 8634.05,1891.3 8635.5,1890.5 Z"/></g>
<g><path style="opacity:0.994" fill="#3f3fa5" d="M 8441.5,1945.5 C 8448.41,1955.66 8455.08,1965.99 8461.5,1976.5C 8461.39,1977.12 8461.06,1977.62 8460.5,1978C 8382.33,1980.84 8304.33,1984.01 8226.5,1987.5C 8153.63,1979.74 8080.96,1971.4 8008.5,1962.5C 8152.83,1956.76 8297.16,1951.09 8441.5,1945.5 Z"/></g>
<g><path style="opacity:0.996" fill="#3d3da3" d="M 8643.5,1937.5 C 8641.43,1958.29 8633.43,1976.29 8619.5,1991.5C 8574.85,1993.58 8530.19,1995.24 8485.5,1996.5C 8470.64,1982.26 8461.3,1964.93 8457.5,1944.5C 8519.53,1942.73 8581.53,1940.4 8643.5,1937.5 Z"/></g>
<g><path style="opacity:0.993" fill="#162287" d="M 7712.5,1945.5 C 7703.85,1965.44 7696.18,1985.78 7689.5,2006.5C 7663.13,2013.01 7636.8,2019.68 7610.5,2026.5C 7614.23,2006.92 7618.9,1987.58 7624.5,1968.5C 7653.75,1960.52 7683.08,1952.85 7712.5,1945.5 Z"/></g>
<g><path style="opacity:0.987" fill="#39399f" d="M 8461.5,1976.5 C 8471.45,1990.2 8481.78,2003.7 8492.5,2017C 8403.74,2008.16 8315.07,1998.32 8226.5,1987.5C 8304.33,1984.01 8382.33,1980.84 8460.5,1978C 8461.06,1977.62 8461.39,1977.12 8461.5,1976.5 Z"/></g>
<g><path style="opacity:0.995" fill="#fe1e00" d="M 7174.5,1949.5 C 7193.97,1968.46 7213.3,1987.63 7232.5,2007C 7252.4,2025.73 7272.4,2044.23 7292.5,2062.5C 7260.63,2079.6 7228.3,2095.94 7195.5,2111.5C 7172.46,2096.64 7149.79,2081.14 7127.5,2065C 7100.74,2045.63 7074.41,2025.8 7048.5,2005.5C 7064,1999.83 7079.33,1993.67 7094.5,1987C 7121.32,1974.76 7147.99,1962.26 7174.5,1949.5 Z"/></g>
<g><path style="opacity:0.958" fill="#35359b" d="M 8619.5,1991.5 C 8596.42,2015.92 8568.08,2025.75 8534.5,2021C 8515.64,2017.57 8499.31,2009.4 8485.5,1996.5C 8530.19,1995.24 8574.85,1993.58 8619.5,1991.5 Z"/></g>
<g><path style="opacity:0.985" fill="#2b2d93" d="M 9025.5,2058.5 C 9004.82,2059.39 8984.15,2060.55 8963.5,2062C 8970.72,2069.68 8974.39,2078.68 8974.5,2089C 8973.8,2095.21 8972.8,2101.38 8971.5,2107.5C 8968.95,2113.31 8966.12,2118.97 8963,2124.5C 8957.52,2129.55 8952.36,2135.05 8947.5,2141C 8934.87,2150.98 8920.87,2158.32 8905.5,2163C 8888.19,2166.66 8872.19,2163.66 8857.5,2154C 8840.46,2138.07 8836.8,2119.74 8846.5,2099C 8846.31,2095.33 8847.64,2092 8850.5,2089C 8850.17,2088.67 8849.83,2088.33 8849.5,2088C 8851.5,2086 8853.5,2084 8855.5,2082C 8855.17,2081.67 8854.83,2081.33 8854.5,2081C 8857.75,2077.43 8860.58,2073.59 8863,2069.5C 8864.56,2067.64 8866.39,2066.14 8868.5,2065C 8859.56,2065.41 8850.56,2065.58 8841.5,2065.5C 8861.03,2046.57 8884.36,2034.73 8911.5,2030C 8953.84,2022.92 8991.84,2032.42 9025.5,2058.5 Z"/></g>
<g><path style="opacity:0.993" fill="#111a80" d="M 7689.5,2006.5 C 7681.7,2034.01 7675.04,2061.68 7669.5,2089.5C 7646.62,2095.26 7623.79,2101.26 7601,2107.5C 7599.99,2106.94 7599.16,2106.28 7598.5,2105.5C 7601.01,2078.93 7605.01,2052.59 7610.5,2026.5C 7636.8,2019.68 7663.13,2013.01 7689.5,2006.5 Z"/></g>
<g><path style="opacity:0.992" fill="#26278d" d="M 9025.5,2058.5 C 9036.92,2067.25 9046.58,2077.58 9054.5,2089.5C 9053.39,2090.29 9052.06,2090.79 9050.5,2091C 9026.5,2092.01 9002.5,2092.85 8978.5,2093.5C 8969.22,2131.28 8945.56,2155.11 8907.5,2165C 8890.6,2168.97 8874.27,2167.3 8858.5,2160C 8839.81,2146.22 8832.81,2128.22 8837.5,2106C 8837.17,2105.67 8836.83,2105.33 8836.5,2105C 8838.95,2099.67 8841.61,2094.5 8844.5,2089.5C 8840.78,2089.11 8836.78,2089.11 8832.5,2089.5C 8828.43,2089.49 8824.77,2088.82 8821.5,2087.5C 8825.07,2081.76 8829.24,2076.42 8834,2071.5C 8836.11,2068.88 8838.61,2066.88 8841.5,2065.5C 8850.56,2065.58 8859.56,2065.41 8868.5,2065C 8866.39,2066.14 8864.56,2067.64 8863,2069.5C 8860.58,2073.59 8857.75,2077.43 8854.5,2081C 8854.83,2081.33 8855.17,2081.67 8855.5,2082C 8853.5,2084 8851.5,2086 8849.5,2088C 8849.83,2088.33 8850.17,2088.67 8850.5,2089C 8847.64,2092 8846.31,2095.33 8846.5,2099C 8836.8,2119.74 8840.46,2138.07 8857.5,2154C 8872.19,2163.66 8888.19,2166.66 8905.5,2163C 8920.87,2158.32 8934.87,2150.98 8947.5,2141C 8952.36,2135.05 8957.52,2129.55 8963,2124.5C 8966.12,2118.97 8968.95,2113.31 8971.5,2107.5C 8972.8,2101.38 8973.8,2095.21 8974.5,2089C 8974.39,2078.68 8970.72,2069.68 8963.5,2062C 8984.15,2060.55 9004.82,2059.39 9025.5,2058.5 Z"/></g>
<g><path style="opacity:1" fill="#2f399f" d="M 8912.5,2057.5 C 8929.45,2056.42 8943.78,2061.92 8955.5,2074C 8954.94,2075.57 8955.61,2076.9 8957.5,2078C 8964.73,2098.4 8960.89,2116.9 8946,2133.5C 8940.91,2136.59 8936.41,2140.42 8932.5,2145C 8926.3,2147.52 8920.3,2150.52 8914.5,2154C 8900.15,2159.89 8885.82,2159.89 8871.5,2154C 8851.94,2142.96 8845.61,2126.96 8852.5,2106C 8854.35,2096.85 8859.18,2089.35 8867,2083.5C 8867.73,2081.1 8868.9,2078.93 8870.5,2077C 8883.26,2067.45 8897.26,2060.95 8912.5,2057.5 Z"/></g>
<g><path style="opacity:1" fill="#3544ab" d="M 8912.5,2063.5 C 8949.47,2063.6 8962.97,2081.27 8953,2116.5C 8942.04,2137.29 8924.88,2149.45 8901.5,2153C 8883.36,2157.51 8868.86,2152.35 8858,2137.5C 8852.69,2126.28 8852.36,2114.95 8857,2103.5C 8868.32,2080.25 8886.82,2066.92 8912.5,2063.5 Z"/></g>
<g><path style="opacity:0.996" fill="#202187" d="M 8821.5,2087.5 C 8824.77,2088.82 8828.43,2089.49 8832.5,2089.5C 8836.78,2089.11 8840.78,2089.11 8844.5,2089.5C 8841.61,2094.5 8838.95,2099.67 8836.5,2105C 8836.83,2105.33 8837.17,2105.67 8837.5,2106C 8832.81,2128.22 8839.81,2146.22 8858.5,2160C 8874.27,2167.3 8890.6,2168.97 8907.5,2165C 8945.56,2155.11 8969.22,2131.28 8978.5,2093.5C 9002.5,2092.85 9026.5,2092.01 9050.5,2091C 9052.06,2090.79 9053.39,2090.29 9054.5,2089.5C 9061.46,2099.74 9067.12,2110.74 9071.5,2122.5C 9037.88,2124.33 9004.21,2126.17 8970.5,2128C 8967.12,2131.71 8964.12,2135.71 8961.5,2140C 8953.83,2145.67 8946.17,2151.33 8938.5,2157C 8926.62,2163.6 8913.95,2167.94 8900.5,2170C 8891.5,2170.67 8882.5,2170.67 8873.5,2170C 8865.69,2167.26 8858.03,2164.26 8850.5,2161C 8843.39,2153.9 8837.06,2146.23 8831.5,2138C 8830.77,2136.23 8830.43,2134.4 8830.5,2132.5C 8820.34,2133.46 8810.34,2133.46 8800.5,2132.5C 8804.57,2116.04 8811.57,2101.04 8821.5,2087.5 Z"/></g>
<g><path style="opacity:1" fill="#3c51b7" d="M 8907.5,2073.5 C 8923.88,2071 8936.38,2076.67 8945,2090.5C 8948.85,2108.59 8943.35,2123.42 8928.5,2135C 8912.59,2146.64 8895.26,2149.31 8876.5,2143C 8862.96,2132.46 8859.79,2119.3 8867,2103.5C 8875.96,2087.28 8889.46,2077.28 8907.5,2073.5 Z"/></g>
<g><path style="opacity:1" fill="#435cc3" d="M 8904.5,2080.5 C 8910.18,2080.33 8915.84,2080.5 8921.5,2081C 8924.71,2081.61 8927.71,2082.77 8930.5,2084.5C 8940.67,2096.32 8941.67,2108.82 8933.5,2122C 8930.41,2127.18 8926.41,2131.52 8921.5,2135C 8916.41,2137.73 8911.07,2140.06 8905.5,2142C 8879.66,2145.73 8868.49,2134.9 8872,2109.5C 8875.13,2103.38 8878.63,2097.55 8882.5,2092C 8884.25,2091.53 8885.91,2090.86 8887.5,2090C 8888.5,2087.67 8890.17,2086 8892.5,2085C 8896.57,2083.37 8900.57,2081.87 8904.5,2080.5 Z"/></g>
<g><path style="opacity:1" fill="#4e70d7" d="M 8903.5,2088.5 C 8911.21,2087.66 8918.54,2088.83 8925.5,2092C 8933.56,2100.44 8934.39,2109.6 8928,2119.5C 8917.81,2133.67 8904.31,2138.51 8887.5,2134C 8879.12,2129.19 8875.95,2122.02 8878,2112.5C 8882.49,2100.17 8890.99,2092.17 8903.5,2088.5 Z"/></g>
<g><path style="opacity:1" fill="#5982e9" d="M 8902.5,2099.5 C 8911.87,2097.18 8917.87,2100.51 8920.5,2109.5C 8918.4,2116.11 8914.07,2120.95 8907.5,2124C 8892.78,2127.04 8887.95,2121.54 8893,2107.5C 8895.36,2103.76 8898.53,2101.09 8902.5,2099.5 Z"/></g>
<g><path style="opacity:0.997" fill="#1a1b81" d="M 9071.5,2122.5 C 9074.6,2131.23 9076.6,2140.23 9077.5,2149.5C 9077.5,2150.5 9077.5,2151.5 9077.5,2152.5C 9032.86,2154.56 8988.19,2156.4 8943.5,2158C 8936.33,2162.51 8929,2166.84 8921.5,2171C 8916.36,2173.27 8911.03,2174.94 8905.5,2176C 8893.78,2176.89 8882.12,2176.55 8870.5,2175C 8868.12,2174.49 8865.79,2173.82 8863.5,2173C 8856.05,2169.52 8848.88,2165.69 8842,2161.5C 8826.52,2162.56 8811.02,2163.23 8795.5,2163.5C 8795.63,2152.79 8797.29,2142.46 8800.5,2132.5C 8810.34,2133.46 8820.34,2133.46 8830.5,2132.5C 8830.43,2134.4 8830.77,2136.23 8831.5,2138C 8837.06,2146.23 8843.39,2153.9 8850.5,2161C 8858.03,2164.26 8865.69,2167.26 8873.5,2170C 8882.5,2170.67 8891.5,2170.67 8900.5,2170C 8913.95,2167.94 8926.62,2163.6 8938.5,2157C 8946.17,2151.33 8953.83,2145.67 8961.5,2140C 8964.12,2135.71 8967.12,2131.71 8970.5,2128C 9004.21,2126.17 9037.88,2124.33 9071.5,2122.5 Z"/></g>
<g><path style="opacity:0.99" fill="#0b1076" d="M 7669.5,2089.5 C 7664.51,2120.75 7660.51,2152.08 7657.5,2183.5C 7656.52,2186.18 7654.52,2187.68 7651.5,2188C 7632.23,2193.15 7612.89,2197.99 7593.5,2202.5C 7593.17,2170.05 7594.84,2137.71 7598.5,2105.5C 7599.16,2106.28 7599.99,2106.94 7601,2107.5C 7623.79,2101.26 7646.62,2095.26 7669.5,2089.5 Z"/></g>
<g><path style="opacity:0.985" fill="#1f1f85" d="M 8342.5,2147.5 C 8362.66,2148.33 8383,2148.83 8403.5,2149C 8166.82,2157.99 7930.15,2167.15 7693.5,2176.5C 7695.02,2166.86 7696.35,2157.2 7697.5,2147.5C 7912.5,2147.5 8127.5,2147.5 8342.5,2147.5 Z"/></g>
<g><path style="opacity:0.994" fill="#1a1a80" d="M 8342.5,2147.5 C 8435.17,2147.33 8527.83,2147.5 8620.5,2148C 8628.37,2154.71 8636.37,2161.21 8644.5,2167.5C 8640.61,2169.28 8636.28,2170.11 8631.5,2170C 8317.64,2182.3 8003.98,2194.14 7690.5,2205.5C 7691.09,2195.79 7692.09,2186.12 7693.5,2176.5C 7930.15,2167.15 8166.82,2157.99 8403.5,2149C 8383,2148.83 8362.66,2148.33 8342.5,2147.5 Z"/></g>
<g><path style="opacity:0.997" fill="#15147a" d="M 9077.5,2149.5 C 9078.17,2152.5 9078.83,2155.5 9079.5,2158.5C 9079.5,2166.17 9079.5,2173.83 9079.5,2181.5C 9078.66,2181.84 9078.33,2182.51 9078.5,2183.5C 9077.69,2184.47 9076.69,2185.3 9075.5,2186C 8982.84,2189.63 8890.17,2193.13 8797.5,2196.5C 8795.84,2185.57 8795.17,2174.57 8795.5,2163.5C 8811.02,2163.23 8826.52,2162.56 8842,2161.5C 8848.88,2165.69 8856.05,2169.52 8863.5,2173C 8865.79,2173.82 8868.12,2174.49 8870.5,2175C 8882.12,2176.55 8893.78,2176.89 8905.5,2176C 8911.03,2174.94 8916.36,2173.27 8921.5,2171C 8929,2166.84 8936.33,2162.51 8943.5,2158C 8988.19,2156.4 9032.86,2154.56 9077.5,2152.5C 9077.5,2151.5 9077.5,2150.5 9077.5,2149.5 Z"/></g>
<g><path style="opacity:1" fill="#17177d" d="M 8644.5,2167.5 C 8648.82,2170.49 8652.82,2173.82 8656.5,2177.5C 8656.39,2178.12 8656.06,2178.62 8655.5,2179C 8333.15,2191.3 8010.81,2203.8 7688.5,2216.5C 7689.1,2212.73 7689.77,2209.06 7690.5,2205.5C 8003.98,2194.14 8317.64,2182.3 8631.5,2170C 8636.28,2170.11 8640.61,2169.28 8644.5,2167.5 Z"/></g>
<g><path style="opacity:0.999" fill="#14147a" d="M 8656.5,2177.5 C 8667.02,2184.59 8677.35,2191.92 8687.5,2199.5C 8687.08,2200.22 8686.42,2200.72 8685.5,2201C 8352.66,2214.1 8020,2226.6 7687.5,2238.5C 7687.72,2231.16 7688.06,2223.83 7688.5,2216.5C 8010.81,2203.8 8333.15,2191.3 8655.5,2179C 8656.06,2178.62 8656.39,2178.12 8656.5,2177.5 Z"/></g>
<g><path style="opacity:0.998" fill="#0f0f75" d="M 9078.5,2183.5 C 9077.72,2195.94 9075.05,2207.94 9070.5,2219.5C 8983.49,2222.77 8896.49,2225.94 8809.5,2229C 8808.93,2228.01 8808.27,2227.17 8807.5,2226.5C 8802.8,2217.06 8799.46,2207.06 8797.5,2196.5C 8890.17,2193.13 8982.84,2189.63 9075.5,2186C 9076.69,2185.3 9077.69,2184.47 9078.5,2183.5 Z"/></g>
<g><path style="opacity:0.986" fill="#fe0900" d="M 7292.5,2062.5 C 7375.13,2137.87 7463.3,2205.87 7557,2266.5C 7558.37,2284.19 7558.87,2301.86 7558.5,2319.5C 7431.18,2260.04 7310.18,2190.71 7195.5,2111.5C 7228.3,2095.94 7260.63,2079.6 7292.5,2062.5 Z"/></g>
<g><path style="opacity:0.994" fill="#05086e" d="M 7657.5,2183.5 C 7655.97,2208.16 7654.64,2232.82 7653.5,2257.5C 7633.52,2262.83 7613.52,2268.16 7593.5,2273.5C 7593.5,2249.83 7593.5,2226.17 7593.5,2202.5C 7612.89,2197.99 7632.23,2193.15 7651.5,2188C 7654.52,2187.68 7656.52,2186.18 7657.5,2183.5 Z"/></g>
<g><path style="opacity:0.999" fill="#0f0f75" d="M 8687.5,2199.5 C 8703.54,2210.18 8719.54,2220.85 8735.5,2231.5C 8388.17,2245.48 8040.67,2259.15 7693,2272.5C 7690.31,2272.5 7687.81,2272.16 7685.5,2271.5C 7685.4,2260.3 7686.07,2249.3 7687.5,2238.5C 8020,2226.6 8352.66,2214.1 8685.5,2201C 8686.42,2200.72 8687.08,2200.22 8687.5,2199.5 Z"/></g>
<g><path style="opacity:0.998" fill="#08086e" d="M 9070.5,2219.5 C 9064.52,2236.15 9055.52,2250.81 9043.5,2263.5C 8975.15,2265.94 8906.82,2268.6 8838.5,2271.5C 8824.62,2258.95 8814.29,2243.95 8807.5,2226.5C 8808.27,2227.17 8808.93,2228.01 8809.5,2229C 8896.49,2225.94 8983.49,2222.77 9070.5,2219.5 Z"/></g>
<g><path style="opacity:0.999" fill="#09096f" d="M 8735.5,2231.5 C 8753.51,2241.84 8771.51,2252.17 8789.5,2262.5C 8421.35,2277.42 8053.01,2291.75 7684.5,2305.5C 7684.5,2303.5 7684.5,2301.5 7684.5,2299.5C 7684.17,2289.99 7684.51,2280.65 7685.5,2271.5C 7687.81,2272.16 7690.31,2272.5 7693,2272.5C 8040.67,2259.15 8388.17,2245.48 8735.5,2231.5 Z"/></g>
<g><path style="opacity:0.983" fill="#010167" d="M 7653.5,2257.5 C 7653.09,2278.17 7652.75,2298.83 7652.5,2319.5C 7632.83,2319.5 7613.17,2319.5 7593.5,2319.5C 7593.5,2304.17 7593.5,2288.83 7593.5,2273.5C 7613.52,2268.16 7633.52,2262.83 7653.5,2257.5 Z"/></g>
<g><path style="opacity:0.999" fill="#05056b" d="M 8789.5,2262.5 C 8795.78,2264.98 8801.78,2267.98 8807.5,2271.5C 8433.36,2286.9 8059.02,2301.57 7684.5,2315.5C 7684.77,2313.9 7684.43,2312.57 7683.5,2311.5C 7683.18,2307.3 7683.52,2303.3 7684.5,2299.5C 7684.5,2301.5 7684.5,2303.5 7684.5,2305.5C 8053.01,2291.75 8421.35,2277.42 8789.5,2262.5 Z"/></g>
<g><path style="opacity:0.986" fill="#010167" d="M 9043.5,2263.5 C 9023.22,2287.32 8997.55,2302.49 8966.5,2309C 8923.43,2317.06 8884.43,2308.06 8849.5,2282C 8845.38,2278.95 8841.71,2275.45 8838.5,2271.5C 8906.82,2268.6 8975.15,2265.94 9043.5,2263.5 Z"/></g>
<g><path style="opacity:0.98" fill="#010167" d="M 8807.5,2271.5 C 8841.76,2288.96 8876.76,2304.8 8912.5,2319C 8502.83,2319.5 8093.17,2319.67 7683.5,2319.5C 7683.5,2316.83 7683.5,2314.17 7683.5,2311.5C 7684.43,2312.57 7684.77,2313.9 7684.5,2315.5C 8059.02,2301.57 8433.36,2286.9 8807.5,2271.5 Z"/></g>
<g><path style="opacity:0.97" fill="#000000" d="M 4049.5,2731.5 C 4053.35,2730.97 4056.85,2731.64 4060,2733.5C 4066.86,2758.08 4074.53,2782.41 4083,2806.5C 4113.61,2888.06 4143.94,2969.72 4174,3051.5C 4194.36,3104.9 4215.69,3157.9 4238,3210.5C 4243.41,3221.66 4249.08,3232.66 4255,3243.5C 4261.03,3254.53 4270.2,3261.36 4282.5,3264C 4289.09,3265.68 4295.75,3266.85 4302.5,3267.5C 4302.5,3272.83 4302.5,3278.17 4302.5,3283.5C 4246.76,3279.05 4191.09,3279.72 4135.5,3285.5C 4135.17,3280.46 4135.51,3275.46 4136.5,3270.5C 4145.7,3268.78 4154.7,3266.28 4163.5,3263C 4174.69,3258.13 4179.19,3249.63 4177,3237.5C 4174.5,3221.01 4170.17,3205.01 4164,3189.5C 4151.44,3157.72 4139.44,3125.72 4128,3093.5C 4123,3091.95 4117.83,3091.12 4112.5,3091C 4062.51,3089.45 4012.51,3089.11 3962.5,3090C 3955.48,3090.5 3948.48,3091.17 3941.5,3092C 3936.45,3092.48 3931.61,3093.64 3927,3095.5C 3909.27,3137.29 3892.94,3179.62 3878,3222.5C 3874.25,3237.25 3878.75,3248.75 3891.5,3257C 3908.03,3264.63 3925.36,3269.47 3943.5,3271.5C 3943.5,3276.5 3943.5,3281.5 3943.5,3286.5C 3889.92,3279.28 3836.26,3278.62 3782.5,3284.5C 3782.17,3280.12 3782.51,3275.78 3783.5,3271.5C 3801.41,3267.47 3816.24,3258.47 3828,3244.5C 3838.01,3229.15 3847.01,3213.15 3855,3196.5C 3868.55,3167.4 3881.55,3138.07 3894,3108.5C 3937,3004.5 3980,2900.5 4023,2796.5C 4030.27,2775.68 4036.94,2754.68 4043,2733.5C 4045.28,2732.88 4047.44,2732.22 4049.5,2731.5 Z M 4027.5,2845.5 C 4030.79,2850.84 4033.63,2856.51 4036,2862.5C 4064.4,2928.64 4090.57,2995.64 4114.5,3063.5C 4065.16,3065.14 4015.83,3065.31 3966.5,3064C 3958.09,3063.58 3949.75,3062.58 3941.5,3061C 3969.68,2988.96 3998.35,2917.13 4027.5,2845.5 Z"/></g>
<g><path style="opacity:0.976" fill="#000000" d="M 1277.5,2734.5 C 1320.18,2731.67 1358.85,2742.5 1393.5,2767C 1433.35,2802.9 1446.85,2847.07 1434,2899.5C 1426.31,2923.71 1412.15,2943.21 1391.5,2958C 1373.87,2969.15 1355.2,2978.15 1335.5,2985C 1384.22,2991.98 1425.72,3012.82 1460,3047.5C 1478.56,3068.96 1489.22,3093.96 1492,3122.5C 1495.14,3152.21 1491.14,3180.88 1480,3208.5C 1467.84,3232.99 1449.01,3250.16 1423.5,3260C 1380.4,3276.72 1335.73,3285.55 1289.5,3286.5C 1224.49,3282.75 1159.49,3282.75 1094.5,3286.5C 1094.5,3280.83 1094.5,3275.17 1094.5,3269.5C 1108.26,3269.32 1121.26,3266.15 1133.5,3260C 1140.66,3254.84 1145.49,3248 1148,3239.5C 1150.46,3226.27 1152.12,3212.94 1153,3199.5C 1158.43,3086.22 1159.76,2972.88 1157,2859.5C 1156.15,2834.47 1152.81,2809.81 1147,2785.5C 1141.16,2770.14 1129.99,2761.3 1113.5,2759C 1107.24,2757.4 1100.9,2756.23 1094.5,2755.5C 1094.5,2749.83 1094.5,2744.17 1094.5,2738.5C 1137.16,2742.03 1179.82,2742.19 1222.5,2739C 1241.01,2737.77 1259.34,2736.27 1277.5,2734.5 Z M 1243.5,2756.5 C 1285.05,2752.71 1319.88,2766.04 1348,2796.5C 1368.82,2825.12 1376.82,2857.12 1372,2892.5C 1366.41,2937.1 1341.57,2964.27 1297.5,2974C 1286.24,2976.13 1274.9,2977.8 1263.5,2979C 1246.77,2979.71 1230.1,2980.88 1213.5,2982.5C 1211.74,2914.04 1213.91,2845.71 1220,2777.5C 1220.75,2773.1 1221.75,2768.77 1223,2764.5C 1224.17,2763.33 1225.33,2762.17 1226.5,2761C 1232.09,2758.69 1237.75,2757.19 1243.5,2756.5 Z M 1250.5,2998.5 C 1298.19,2995.25 1340.85,3008.08 1378.5,3037C 1416.55,3073.49 1431.72,3117.99 1424,3170.5C 1418.13,3205.41 1399.63,3231.25 1368.5,3248C 1340.59,3260.75 1311.26,3266.92 1280.5,3266.5C 1266.79,3266.37 1253.12,3265.54 1239.5,3264C 1230.44,3262.6 1223.94,3257.77 1220,3249.5C 1217.32,3242.74 1215.65,3235.74 1215,3228.5C 1213.98,3212.85 1213.31,3197.18 1213,3181.5C 1212.5,3121.83 1212.33,3062.17 1212.5,3002.5C 1225.29,3000.93 1237.95,2999.6 1250.5,2998.5 Z"/></g>
<g><path style="opacity:0.977" fill="#000000" d="M 2909.5,3310.5 C 2902.5,3310.5 2895.5,3310.5 2888.5,3310.5C 2859.83,3307.78 2832.83,3299.28 2807.5,3285C 2784.47,3271.31 2763.14,3255.31 2743.5,3237C 2722.59,3217.42 2703.09,3196.59 2685,3174.5C 2648.98,3126.28 2613.81,3077.45 2579.5,3028C 2549.33,3027.75 2519.33,3025.58 2489.5,3021.5C 2488.72,3022.73 2488.22,3024.06 2488,3025.5C 2487.33,3075.5 2487.33,3125.5 2488,3175.5C 2488.52,3196.32 2490.52,3216.99 2494,3237.5C 2495.36,3246.61 2499.2,3254.44 2505.5,3261C 2519.96,3266.28 2534.62,3270.95 2549.5,3275C 2554.92,3278.26 2556.08,3282.76 2553,3288.5C 2551.31,3290.92 2548.98,3291.92 2546,3291.5C 2489.74,3281.18 2433.4,3280.85 2377,3290.5C 2369.89,3288.98 2367.56,3284.64 2370,3277.5C 2370.83,3276.67 2371.67,3275.83 2372.5,3275C 2383.96,3271.85 2394.96,3267.51 2405.5,3262C 2416.25,3252.68 2422.41,3240.84 2424,3226.5C 2426.85,3208.28 2428.52,3189.95 2429,3171.5C 2430.95,3057.5 2430.95,2943.5 2429,2829.5C 2429.02,2813.35 2426.36,2797.68 2421,2782.5C 2414.44,2771.13 2404.6,2764.63 2391.5,2763C 2384.53,2761.62 2377.53,2760.45 2370.5,2759.5C 2370.2,2754.9 2370.53,2750.4 2371.5,2746C 2394.5,2745.67 2417.5,2745.33 2440.5,2745C 2482.48,2741.78 2524.48,2738.78 2566.5,2736C 2617.68,2731.83 2665.02,2743.17 2708.5,2770C 2746.4,2796.61 2767.06,2833.11 2770.5,2879.5C 2767.63,2926.75 2746.96,2963.92 2708.5,2991C 2691.33,3002.25 2673.33,3011.92 2654.5,3020C 2682.38,3062.25 2710.88,3104.08 2740,3145.5C 2759.19,3170.53 2778.85,3195.2 2799,3219.5C 2818.06,3239.9 2838.89,3258.07 2861.5,3274C 2879.32,3285.05 2898.66,3291.72 2919.5,3294C 2924.59,3298.78 2924.59,3303.44 2919.5,3308C 2916.05,3308.88 2912.71,3309.72 2909.5,3310.5 Z M 2556.5,2755.5 C 2621.51,2752.38 2667.34,2780.38 2694,2839.5C 2709.31,2875.82 2708.64,2911.82 2692,2947.5C 2673.57,2975.99 2647.4,2992.82 2613.5,2998C 2572.42,3004.25 2531.42,3003.75 2490.5,2996.5C 2490.21,2948.16 2490.71,2899.82 2492,2851.5C 2492.26,2826.62 2494.6,2801.95 2499,2777.5C 2501.59,2770.57 2506.43,2766.07 2513.5,2764C 2527.75,2760.07 2542.08,2757.24 2556.5,2755.5 Z"/></g>
<g><path style="opacity:0.97" fill="#000000" d="M 5355.5,2736.5 C 5398.92,2735.1 5441.76,2739.43 5484,2749.5C 5494.25,2748.75 5503.41,2745.25 5511.5,2739C 5514.56,2738.54 5517.56,2738.88 5520.5,2740C 5521.1,2741.06 5521.43,2742.23 5521.5,2743.5C 5518.86,2764.98 5516.53,2786.48 5514.5,2808C 5517.12,2826.1 5519.12,2844.26 5520.5,2862.5C 5515.82,2862.67 5511.15,2863 5506.5,2863.5C 5504.46,2832.25 5491.46,2806.75 5467.5,2787C 5440.92,2767.25 5410.92,2756.58 5377.5,2755C 5348.97,2752.17 5321.64,2756.5 5295.5,2768C 5287.23,2772.89 5280.06,2779.05 5274,2786.5C 5260.95,2805.94 5252.95,2827.27 5250,2850.5C 5246.62,2882.05 5256.46,2908.55 5279.5,2930C 5287.3,2936.74 5295.64,2942.74 5304.5,2948C 5316.92,2954.55 5329.59,2960.55 5342.5,2966C 5371.39,2977.11 5400.06,2988.78 5428.5,3001C 5456.86,3012.41 5481.69,3028.91 5503,3050.5C 5533.24,3084.1 5544.91,3123.43 5538,3168.5C 5531.4,3209.08 5510.56,3239.91 5475.5,3261C 5443.02,3279.54 5408.02,3289.2 5370.5,3290C 5339.64,3291.07 5308.97,3289.07 5278.5,3284C 5257.54,3280.05 5236.71,3275.55 5216,3270.5C 5213.19,3270.41 5210.85,3271.41 5209,3273.5C 5207.66,3277.03 5207.16,3280.69 5207.5,3284.5C 5201.51,3284.03 5195.51,3283.7 5189.5,3283.5C 5188.97,3235.67 5181.31,3189.01 5166.5,3143.5C 5170.76,3141.31 5175.26,3139.64 5180,3138.5C 5180.77,3138.64 5181.44,3138.98 5182,3139.5C 5187.46,3161.56 5195.46,3182.56 5206,3202.5C 5212.21,3211.71 5220.05,3219.21 5229.5,3225C 5274.43,3250.2 5322.6,3264.03 5374,3266.5C 5405.34,3266.5 5433.84,3257.66 5459.5,3240C 5473.71,3224.74 5481.21,3206.57 5482,3185.5C 5486.25,3152.35 5478.25,3122.69 5458,3096.5C 5444.85,3083.35 5430.02,3072.51 5413.5,3064C 5377.29,3047.89 5340.62,3032.89 5303.5,3019C 5280.55,3008.87 5259.21,2996.2 5239.5,2981C 5198.09,2942.19 5185.59,2895.36 5202,2840.5C 5222.27,2786.58 5260.77,2753.74 5317.5,2742C 5330.24,2739.66 5342.91,2737.83 5355.5,2736.5 Z"/></g>
<g><path style="opacity:0.978" fill="#000000" d="M 6417.5,2738.5 C 6455.66,2740.25 6493.83,2741.92 6532,2743.5C 6571.83,2741.71 6611.66,2740.04 6651.5,2738.5C 6651.5,2745.17 6651.5,2751.83 6651.5,2758.5C 6634,2758.19 6616.67,2759.69 6599.5,2763C 6584.09,2770.12 6576.25,2782.28 6576,2799.5C 6570.52,2845.99 6567.85,2892.66 6568,2939.5C 6567.33,3010.5 6567.33,3081.5 6568,3152.5C 6568.09,3181.98 6570.09,3211.31 6574,3240.5C 6576.48,3251.3 6582.98,3258.47 6593.5,3262C 6611.49,3266.83 6629.82,3269 6648.5,3268.5C 6648.18,3273.84 6647.68,3279.18 6647,3284.5C 6645.82,3285.68 6644.32,3286.35 6642.5,3286.5C 6566.16,3282.53 6489.83,3282.53 6413.5,3286.5C 6413.57,3280.47 6413.24,3274.47 6412.5,3268.5C 6430.05,3268.05 6447.38,3265.88 6464.5,3262C 6481.34,3257.16 6492.18,3246.32 6497,3229.5C 6502.37,3208.85 6505.37,3187.85 6506,3166.5C 6509.71,3048.81 6509.05,2931.15 6504,2813.5C 6503.57,2800.32 6500.23,2787.98 6494,2776.5C 6489.96,2771.9 6485.13,2768.4 6479.5,2766C 6459.42,2759.19 6438.75,2756.35 6417.5,2757.5C 6417.5,2751.17 6417.5,2744.83 6417.5,2738.5 Z"/></g>
<g><path style="opacity:0.976" fill="#000000" d="M 7553.5,2742.5 C 7593.35,2742.41 7633.18,2743.08 7673,2744.5C 7696.84,2744.1 7720.68,2743.43 7744.5,2742.5C 7744.37,2748.18 7744.03,2753.85 7743.5,2759.5C 7730.39,2760.54 7717.39,2762.37 7704.5,2765C 7686.64,2769.89 7677.14,2781.72 7676,2800.5C 7673.27,2837.11 7671.6,2873.78 7671,2910.5C 7667.96,3007.49 7667.29,3104.49 7669,3201.5C 7669.67,3211.2 7670.67,3220.87 7672,3230.5C 7672.87,3235.77 7674.53,3240.77 7677,3245.5C 7683.94,3250.72 7691.78,3253.88 7700.5,3255C 7738.81,3257.81 7777.14,3258.14 7815.5,3256C 7856.49,3252.92 7895.82,3243.25 7933.5,3227C 7952.01,3213.29 7964.01,3195.12 7969.5,3172.5C 7970.33,3172.17 7971.17,3171.83 7972,3171.5C 7976.17,3172.21 7980.34,3172.88 7984.5,3173.5C 7977.18,3212.63 7966.51,3250.8 7952.5,3288C 7929.27,3285.63 7905.94,3284.29 7882.5,3284C 7771.17,3283.5 7659.83,3283.33 7548.5,3283.5C 7547.98,3278.77 7547.98,3274.1 7548.5,3269.5C 7563.68,3267.38 7577.68,3262.22 7590.5,3254C 7597.24,3246.36 7601.74,3237.53 7604,3227.5C 7606.73,3213.29 7608.4,3198.96 7609,3184.5C 7609.59,3081.33 7610.42,2978.16 7611.5,2875C 7611.49,2850.8 7610.66,2826.63 7609,2802.5C 7607.69,2793.57 7605.36,2784.9 7602,2776.5C 7596.49,2765.82 7587.66,2760.32 7575.5,2760C 7568.21,2758.88 7560.87,2758.38 7553.5,2758.5C 7553.5,2753.17 7553.5,2747.83 7553.5,2742.5 Z"/></g>
<g><path style="opacity:0.979" fill="#000000" d="M 1884.5,2964.5 C 1910.1,2961.88 1929.93,2971.22 1944,2992.5C 1954.5,3013.55 1953.83,3034.22 1942,3054.5C 1925.2,3076.32 1903.37,3083.82 1876.5,3077C 1845.88,3064.28 1833.05,3041.45 1838,3008.5C 1844.97,2984.7 1860.47,2970.03 1884.5,2964.5 Z"/></g>
<g><path style="opacity:0.979" fill="#000000" d="M 3309.5,2964.5 C 3339.26,2962.29 3360.43,2974.63 3373,3001.5C 3381.7,3030.39 3373.87,3053.56 3349.5,3071C 3328.29,3082.58 3307.29,3082.24 3286.5,3070C 3262.67,3051.16 3255.83,3027.32 3266,2998.5C 3274.9,2979.82 3289.4,2968.49 3309.5,2964.5 Z"/></g>
<g><path style="opacity:0.979" fill="#000000" d="M 4677.5,2964.5 C 4711.69,2962.49 4733.52,2977.83 4743,3010.5C 4746.74,3036.84 4737.58,3057.34 4715.5,3072C 4688.61,3084.88 4664.44,3081.04 4643,3060.5C 4625.47,3037.42 4624.14,3013.42 4639,2988.5C 4648.78,2975.53 4661.62,2967.53 4677.5,2964.5 Z"/></g>
<g><path style="opacity:0.979" fill="#000000" d="M 5972.5,2964.5 C 5997.46,2962.08 6016.96,2971.08 6031,2991.5C 6043.56,3015.26 6041.89,3037.92 6026,3059.5C 6004.51,3080.89 5980.01,3085.05 5952.5,3072C 5930.75,3057.66 5921.58,3037.49 5925,3011.5C 5931.45,2986.21 5947.29,2970.55 5972.5,2964.5 Z"/></g>
<g><path style="opacity:0.979" fill="#000000" d="M 7071.5,2964.5 C 7098.09,2961.88 7118.25,2971.88 7132,2994.5C 7144.73,3024.43 7138.56,3049.59 7113.5,3070C 7082.39,3086.51 7055.56,3081.34 7033,3054.5C 7020.34,3032.8 7020.34,3011.13 7033,2989.5C 7042.73,2976.23 7055.56,2967.9 7071.5,2964.5 Z"/></g>
</svg>
